<?xml version="1.0" encoding="UTF-8"?>
<svg version="1.1" xmlns="http://www.w3.org/2000/svg" width="512" height="512">
<path d="M0 0 C1.87991519 1.06041569 3.76011409 2.12032861 5.640625 3.1796875 C8.4297883 4.75337056 11.21744923 6.32952068 14.00170898 7.91186523 C21.7982931 12.34094784 29.64304126 16.67941059 37.5 21 C47.17083139 26.31937536 56.80744343 31.69427248 66.40722656 37.14111328 C78.22660522 43.84123128 90.11683853 50.41390881 102 57 C109.91598912 61.38733634 117.82910612 65.77969566 125.73535156 70.18457031 C128.98423165 71.99123142 132.23811614 73.78864786 135.4921875 75.5859375 C137.53670508 76.72351498 139.58098704 77.86151606 141.625 79 C142.54249023 79.50354004 143.45998047 80.00708008 144.40527344 80.52587891 C158.92589137 88.65301008 169.73783839 98.63973134 175.25 114.625 C176.79911217 121.59600478 177.1466977 128.35181697 177.13371277 135.46112061 C177.13597833 136.38237205 177.13824388 137.30362349 177.14057809 138.25279164 C177.14688093 141.3231631 177.14609112 144.39349 177.14526367 147.46386719 C177.14825749 149.67215023 177.15166053 151.88043276 177.15544128 154.0887146 C177.16426302 160.07646174 177.16661864 166.06419458 177.16725707 172.05194759 C177.16796863 175.79626298 177.17010498 179.54057474 177.17275429 183.28488922 C177.18152493 195.6831189 177.18617475 208.08134164 177.18542381 220.47957405 C177.18536388 221.48065169 177.18536388 221.48065169 177.18530273 222.50195312 C177.18526185 223.17016033 177.18522097 223.83836753 177.18517885 224.52682343 C177.18477263 235.34965483 177.19433803 246.1724514 177.2084411 256.99527273 C177.22283325 268.12846761 177.22952693 279.26164815 177.22884732 290.39485288 C177.22859283 296.63707874 177.23141749 302.87926517 177.24202538 309.12148285 C177.25173468 314.99512282 177.25176611 320.8686859 177.24450874 326.74232864 C177.24346641 328.89167265 177.24580482 331.04102151 177.2518692 333.19035721 C177.30090658 351.78203064 177.04626837 368.49899309 164 383 C158.37812389 388.53862949 152.53925386 392.79915685 145.625 396.5625 C144.7292627 397.06225342 143.83352539 397.56200684 142.91064453 398.0769043 C140.96861394 399.15851434 139.02368437 400.23493256 137.07617188 401.30664062 C133.9039634 403.05286586 130.74028411 404.81377316 127.578125 406.578125 C121.88418096 409.75240253 116.18343852 412.91423813 110.48046875 416.07226562 C104.77638178 419.23159999 99.07542175 422.39655828 93.375 425.5625 C91.69736572 426.49412964 91.69736572 426.49412964 89.98583984 427.44458008 C81.45080072 432.18716197 72.93013686 436.9550514 64.41357422 441.73071289 C56.78597141 446.00570143 49.1455791 450.25725588 41.5 454.5 C32.78259803 459.33807695 24.07336008 464.19026969 15.375 469.0625 C14.36163574 469.62888184 13.34827148 470.19526367 12.30419922 470.77880859 C6.94381319 473.77745305 1.59693184 476.79757786 -3.734375 479.84765625 C-4.84603027 480.47986084 -5.95768555 481.11206543 -7.10302734 481.76342773 C-9.21148649 482.96302488 -11.31628799 484.16908531 -13.41650391 485.38305664 C-28.75722427 494.08485512 -44.12118495 497.3379549 -61.640625 494.38671875 C-76.61125283 490.11745679 -90.33622468 481.20449852 -103.75390625 473.55078125 C-110.22644084 469.86140581 -116.73445286 466.23774362 -123.25 462.625 C-124.37543213 462.00052979 -125.50086426 461.37605957 -126.66040039 460.73266602 C-130.10652463 458.82103868 -133.55317308 456.91036001 -137 455 C-150.74897558 447.37980506 -164.4851449 439.7413174 -178.15722656 431.98388672 C-185.90594647 427.59703823 -193.69864525 423.29217244 -201.5 419 C-213.22426658 412.54672722 -224.92515959 406.05531402 -236.5390625 399.40478516 C-238.83233747 398.09570736 -241.13424178 396.80311376 -243.4375 395.51171875 C-257.123402 387.72795475 -267.03891583 378.0939797 -271.45703125 362.6171875 C-272.84833388 355.91090863 -273.14617339 349.36112215 -273.13371277 342.53887939 C-273.13597833 341.61762795 -273.13824388 340.69637651 -273.14057809 339.74720836 C-273.14688093 336.6768369 -273.14609112 333.60651 -273.14526367 330.53613281 C-273.14825749 328.32784977 -273.15166053 326.11956724 -273.15544128 323.9112854 C-273.16426302 317.92353826 -273.16661864 311.93580542 -273.16725707 305.94805241 C-273.16796863 302.20373702 -273.17010498 298.45942526 -273.17275429 294.71511078 C-273.18152493 282.3168811 -273.18617475 269.91865836 -273.18542381 257.52042595 C-273.18538386 256.85304085 -273.1853439 256.18565576 -273.18530273 255.49804688 C-273.18526185 254.82983967 -273.18522097 254.16163247 -273.18517885 253.47317657 C-273.18477263 242.65034517 -273.19433803 231.8275486 -273.2084411 221.00472727 C-273.22283325 209.87153239 -273.22952693 198.73835185 -273.22884732 187.60514712 C-273.22859283 181.36292126 -273.23141749 175.12073483 -273.24202538 168.87851715 C-273.25173468 163.00487718 -273.25176611 157.1313141 -273.24450874 151.25767136 C-273.24346641 149.10832735 -273.24580482 146.95897849 -273.2518692 144.80964279 C-273.30090433 126.21882199 -273.04693559 109.49985816 -260 95 C-254.41170113 89.50036131 -248.61875277 85.24158757 -241.75 81.5 C-240.418479 80.75641235 -240.418479 80.75641235 -239.06005859 79.99780273 C-236.04668362 78.31956808 -233.02389155 76.6592042 -230 75 C-227.66375949 73.71017977 -225.32782116 72.41982391 -222.9921875 71.12890625 C-219.28458352 69.08087451 -215.57592572 67.03479941 -211.86425781 64.99414062 C-204.38122288 60.87869101 -196.92557351 56.71844738 -189.5 52.5 C-180.870441 47.59840438 -172.19563551 42.78295364 -163.5 38 C-153.83075327 32.68114192 -144.19509419 27.30789446 -134.59716797 21.86108398 C-126.1676854 17.08192748 -117.70134221 12.37054982 -109.22216797 7.68017578 C-103.50090908 4.51283036 -97.79529339 1.32229487 -92.1171875 -1.921875 C-91.00520996 -2.55424072 -89.89323242 -3.18660645 -88.74755859 -3.83813477 C-86.65535635 -5.02956703 -84.56682689 -6.22748389 -82.48291016 -7.43334961 C-52.52542147 -24.44740077 -28.08417185 -15.95812545 0 0 Z M-116.98828125 78.33105469 C-121.05363466 80.58387213 -125.14862289 82.77969283 -129.24414062 84.97705078 C-137.50041458 89.41131631 -145.71811004 93.90055174 -153.8125 98.625 C-154.50577393 99.0267041 -155.19904785 99.4284082 -155.91333008 99.84228516 C-162.0337895 103.32548045 -162.0337895 103.32548045 -164.875 109.375 C-165.0204111 113.59192202 -164.74679173 114.83702771 -162 118 C-155.26809358 122.73415863 -147.87100509 125.86596321 -140.35791016 129.12768555 C-136.33735554 130.87454426 -132.32668336 132.64376219 -128.31640625 134.4140625 C-127.47465851 134.78545349 -126.63291077 135.15684448 -125.76565552 135.53948975 C-117.15112502 139.35327952 -108.60883406 143.3181902 -100.07147217 147.30105591 C-92.38837829 150.88328407 -84.69448114 154.44231302 -77 158 C-75.71642609 158.59406647 -75.71642609 158.59406647 -74.40692139 159.20013428 C-69.37863563 161.52498464 -64.34299297 163.83246699 -59.29589844 166.11621094 C-57.7421929 166.82197283 -56.19084549 167.53295279 -54.64208984 168.24951172 C-52.50587624 169.23671911 -50.36185302 170.2045132 -48.21484375 171.16796875 C-47.29100136 171.60238533 -47.29100136 171.60238533 -46.34849548 172.045578 C-41.60643525 174.13537704 -38.08344281 174.45819875 -33 174 C-30.22929448 172.94326448 -30.22929448 172.94326448 -27.8125 171.24609375 C-26.87792969 170.64595459 -25.94335938 170.04581543 -24.98046875 169.42749023 C-23.99691406 168.77079346 -23.01335937 168.11409668 -22 167.4375 C-19.87542157 166.0618487 -17.75040832 164.68686875 -15.625 163.3125 C-14.53703125 162.6009375 -13.4490625 161.889375 -12.328125 161.15625 C-5.9598067 157.0302973 0.520269 153.08126285 6.98046875 149.10131836 C16.15826076 143.39288996 23.68099356 138.61066584 29 129 C29.34160156 128.39671875 29.68320312 127.7934375 30.03515625 127.171875 C33.41819669 119.93374197 33.11945207 110.71181805 31.30859375 103.08984375 C27.37193773 92.43287117 20.68253477 85.72486534 10.55078125 80.8125 C-4.65631931 74.31904419 -20.53468651 74.41216775 -36 80 C-39.10619516 81.467212 -42.03021769 83.03958905 -44.9609375 84.828125 C-47 86 -47 86 -49 86 C-49.20753906 85.443125 -49.41507812 84.88625 -49.62890625 84.3125 C-53.44203919 74.86741756 -58.46428393 69.17086373 -67.765625 64.91015625 C-85.38875045 57.7315055 -102.09718597 70.01505663 -116.98828125 78.33105469 Z M-226 157 C-228.17191731 160.15278319 -228.96577383 162.17857193 -229.125 166 C-226.06001723 174.17328739 -216.06183744 177.83366996 -208.76586914 181.46435547 C-207.53604789 182.08511983 -206.30664314 182.7067099 -205.07762146 183.32905579 C-201.76003019 185.0055537 -198.43621528 186.66932432 -195.11062932 188.32989645 C-192.32800916 189.72060926 -189.54834731 191.1171815 -186.76859087 192.51360714 C-180.20982823 195.80811541 -173.64575714 199.09186475 -167.07836914 202.36914062 C-160.31469359 205.74463053 -153.56083706 209.13918857 -146.8114081 212.54306304 C-141.00208326 215.47190244 -135.18662377 218.38829007 -129.36616796 221.29494584 C-125.89595282 223.02811692 -122.42828745 224.7659575 -118.9665699 226.51604843 C-115.71252556 228.16052509 -112.45107632 229.78927954 -109.18338966 231.40646935 C-107.42148531 232.28317157 -105.66744602 233.17562539 -103.91372681 234.06858826 C-97.99072297 236.97922825 -93.62804286 238.91852959 -87 238 C-84.1899654 236.20636089 -82.49059532 234.98119065 -81 232 C-80.24172861 226.45268121 -80.24172861 226.45268121 -82.76881409 221.76617432 C-87.13745191 217.56659798 -92.8509702 215.23211218 -98.22241211 212.57324219 C-99.4749007 211.94442619 -100.72695992 211.31475436 -101.97862244 210.68429565 C-105.36659423 208.98107658 -108.76070522 207.29045156 -112.15630412 205.60249996 C-115.71470983 203.83150906 -119.26805192 202.05041032 -122.82215881 200.27081299 C-128.78963945 197.28481454 -134.76114065 194.30698278 -140.73510742 191.33398438 C-147.63595091 187.89959324 -154.53028538 184.45241034 -161.42127413 180.99829364 C-168.05920045 177.67139188 -174.70161966 174.35355862 -181.34613228 171.03983307 C-184.1700285 169.6313159 -186.99232274 168.21966125 -189.81336784 166.80544281 C-193.13643905 165.14006969 -196.46337837 163.48268958 -199.79343605 161.83133316 C-201.59359481 160.93632515 -203.3898518 160.03348273 -205.18597412 159.13040161 C-206.26400803 158.59774689 -207.34204193 158.06509216 -208.45274353 157.51629639 C-209.3846347 157.05175426 -210.31652586 156.58721214 -211.27665615 156.10859299 C-217.04399812 153.76087811 -220.75120363 153.3841625 -226 157 Z M116.57913208 155.96061707 C115.68411421 156.39125363 114.78909634 156.8218902 113.86695671 157.26557636 C112.89395182 157.74149817 111.92094692 158.21741999 110.91845703 158.70776367 C109.89658358 159.20236934 108.87471012 159.696975 107.8218708 160.20656872 C104.54411315 161.79671059 101.27137078 163.39676326 98 165 C96.96914024 165.50463902 95.93828049 166.00927803 94.87618256 166.52920914 C81.26493779 173.20144847 67.69465895 179.95704535 54.12568474 186.71474934 C47.20766499 190.15987508 40.28507025 193.59545034 33.35641849 197.01914531 C27.83644294 199.74787364 22.32419194 202.49189042 16.81445694 205.24123192 C14.48765582 206.39943801 12.1584567 207.55283989 9.82680893 208.70125771 C6.58341983 210.29992535 3.34924749 211.91592619 0.11669922 213.53637695 C-0.83907013 214.00246368 -1.79483948 214.46855042 -2.77957153 214.94876099 C-8.09211968 217.63835369 -11.69211172 219.99142965 -15 225 C-15.68359886 229.32945942 -15.5279283 231.19050994 -13.125 234.875 C-10.41238029 237.58761971 -9.50766472 237.93542044 -5.66117859 238.42472839 C0.7076832 238.31924204 6.0229089 235.03237616 11.57885742 232.2043457 C12.8323245 231.58058016 14.08647943 230.95819527 15.34126282 230.33708191 C18.73279106 228.65310422 22.11400662 226.94933397 25.4934175 225.24119592 C29.03865225 223.45281834 32.59219513 221.68109188 36.14460754 219.9070282 C42.10744455 216.92602379 48.06383167 213.93244442 54.01635742 210.9309082 C60.88987213 207.46511775 67.77236588 204.01772908 74.66016883 200.58043224 C81.29749084 197.26777935 87.92905967 193.94377322 94.55782509 190.61403465 C97.37378133 189.19966151 100.19153745 187.7889725 103.01079369 186.38118935 C106.33238209 184.72178048 109.64875457 183.05237032 112.96142387 181.37523079 C114.75221693 180.47144899 116.54789753 179.57737189 118.34371948 178.68362427 C127.58404511 174.27669529 127.58404511 174.27669529 133 166.0625 C133 162.15544281 132.21495196 160.21525285 130 157 C124.85222626 153.78264141 121.9715875 153.34688024 116.57913208 155.96061707 Z M-165.13984108 246.81011391 C-166.315742 248.96246612 -167.42418853 251.1384404 -168.51489258 253.33520508 C-168.93502625 254.16189194 -169.35515991 254.9885788 -169.7880249 255.84031677 C-171.16725184 258.56161571 -172.53156333 261.29005681 -173.89453125 264.01953125 C-174.85104615 265.9215673 -175.80797691 267.82339426 -176.76530457 269.72502136 C-178.76668752 273.70690582 -180.76020049 277.69261494 -182.7487793 281.6809082 C-185.29450776 286.78406145 -187.86373839 291.87496596 -190.43954945 296.96298695 C-192.42123907 300.88573468 -194.38812014 304.81576696 -196.35086632 308.74802208 C-197.29193638 310.62795942 -198.2380706 312.50537076 -199.18940163 314.38013649 C-200.51907277 317.00490526 -201.82790758 319.6391006 -203.13208008 322.27661133 C-203.52630661 323.04415741 -203.92053314 323.81170349 -204.32670593 324.60250854 C-206.79304011 329.66192948 -207.60454053 333.36276773 -207 339 C-204.07811368 342.61391202 -201.88374526 344.74312565 -197.25 345.375 C-192.96755398 344.88087161 -190.66984831 343.24246993 -188 340 C-184.42106995 334.34686893 -184.42106995 334.34686893 -183 328 C-176.25295358 330.58289897 -169.77725383 333.48353257 -163.34375 336.765625 C-162.47480103 337.20388611 -161.60585205 337.64214722 -160.71057129 338.09368896 C-157.97171155 339.47520658 -155.23554946 340.86194048 -152.5 342.25 C-148.86686347 344.09309673 -145.23113949 345.93093874 -141.59375 347.765625 C-140.76049194 348.19055237 -139.92723389 348.61547974 -139.06872559 349.05328369 C-138.30032349 349.44078796 -137.53192139 349.82829224 -136.74023438 350.22753906 C-135.72624573 350.74238861 -135.72624573 350.74238861 -134.69177246 351.26763916 C-133.00134722 352.13242307 -133.00134722 352.13242307 -131 352 C-130.86464844 352.56203125 -130.72929687 353.1240625 -130.58984375 353.703125 C-128.8794659 360.38076788 -126.77637685 366.91300892 -124.5625 373.4375 C-124.27431396 374.31374023 -123.98612793 375.18998047 -123.68920898 376.09277344 C-121.54343873 382.32841691 -121.54343873 382.32841691 -117 387 C-112.63456758 388.29346146 -110.77861195 388.39665137 -106.6875 386.3125 C-104.12805667 384.1101883 -103.19205094 383.04655763 -102 380 C-102.2574518 372.48910597 -104.42724773 365.86428702 -106.8137207 358.7824707 C-107.20733795 357.59110504 -107.6009552 356.39973938 -108.00650024 355.17227173 C-109.08051787 351.92844268 -110.16248469 348.68749525 -111.24876046 345.44776559 C-112.38806805 342.04511954 -113.51853065 338.63953452 -114.6504364 335.23442078 C-116.55142642 329.52056253 -118.45995539 323.80926394 -120.37280273 318.09936523 C-122.580254 311.50968736 -124.77468085 304.9157793 -126.96242648 298.31953555 C-128.84629721 292.64065047 -130.73720703 286.96414514 -132.63396519 281.28955144 C-133.76457268 277.90705463 -134.89277277 274.52380758 -136.0146122 271.13839149 C-137.2654562 267.36522685 -138.53104466 263.59710066 -139.7980957 259.8293457 C-140.16552383 258.71491592 -140.53295197 257.60048615 -140.91151428 256.45228577 C-144.05735708 246.91753581 -144.05735708 246.91753581 -151 240 C-158.13754306 239.19414836 -161.08523074 240.37122809 -165.13984108 246.81011391 Z M42 260 C29.37013511 275.24120872 26.63254573 289.76821566 26.68432617 308.97875977 C26.68748987 311.42965074 26.66393727 313.8793351 26.63867188 316.33007812 C26.57548456 331.72461213 28.90759145 344.37027333 39.5 356.1875 C48.75885317 364.998633 60.18040418 368.35143126 72.65625 368.2109375 C83.8405423 367.50538635 93.88128706 361.98884259 101.47265625 353.84375 C107.92605619 346.05345646 112.31930679 336.29294819 112 326 C111.17115093 322.46540398 109.70157708 319.77674605 107.25 317.0625 C103.90314086 315.48203874 101.66018158 315.49514737 98 316 C94.91689469 317.60084314 93.8240676 318.20496719 92 321 C91.05305252 324.230762 90.40786742 327.46304711 89.7578125 330.765625 C88.53319694 335.99233472 86.56995367 340.0767524 82.21484375 343.3359375 C76.74366076 346.40328065 70.80133954 347.75654718 64.60546875 346.5234375 C58.48467473 344.67603367 54.02194688 342.21899971 50.90087891 336.46582031 C48.59919299 331.7138228 48.38740353 327.45008945 48.3984375 322.234375 C48.38986725 321.31972473 48.381297 320.40507446 48.37246704 319.46270752 C48.36103908 317.5365325 48.35993656 315.61027123 48.36865234 313.68408203 C48.37495473 310.77092405 48.32806283 307.86187292 48.27734375 304.94921875 C48.19727064 293.24689072 48.69710627 283.68075128 57.14208984 274.72949219 C62.4185659 269.79473324 67.59960719 266.92182684 75 267 C80.19344053 267.88288489 84.77389973 269.5474176 88.02734375 273.92578125 C89.34318664 276.73185585 89.83702498 279.52581202 90.4375 282.5625 C91.4799655 288.02151074 91.4799655 288.02151074 94.75 292.3125 C98.61487763 294.31926339 100.70512629 294.70279752 105 294 C108.38533485 292.11925842 109.71344584 290.5492288 111.5 287.125 C113.01715501 280.35615459 110.6664866 272.41830535 107.703125 266.33984375 C106.26091786 264.07961052 104.73140423 262.04583377 103 260 C102.21109375 259.04673828 102.21109375 259.04673828 101.40625 258.07421875 C95.07991874 251.10630201 85.85850539 246.59454536 76.4765625 245.78125 C63.59919729 245.34839739 50.92148029 250.51947133 42 260 Z M-54 284 C-57.69411988 287.8066446 -58.50168015 290.21940766 -58.5146637 295.48326111 C-58.52738815 296.7940715 -58.54011261 298.1048819 -58.55322266 299.45541382 C-58.54704068 300.90118589 -58.54043468 302.3469562 -58.53344727 303.79272461 C-58.54050729 305.32066175 -58.54925266 306.8485919 -58.55955505 308.37651062 C-58.5820503 312.521228 -58.57910904 316.66556354 -58.57023358 320.81031871 C-58.565122 324.27209264 -58.57241767 327.73379492 -58.57970566 331.19556147 C-58.59670523 339.36310408 -58.59313845 347.53045986 -58.57641602 355.69799805 C-58.55949448 364.12046265 -58.57532932 372.54240899 -58.6076389 380.96481699 C-58.63434059 388.19981021 -58.64160926 395.43464216 -58.63312382 402.6696797 C-58.62819625 406.98919747 -58.63040073 411.30840341 -58.65091133 415.627882 C-58.66927773 419.69024819 -58.66329877 423.75186939 -58.63871193 427.81419563 C-58.63370697 429.30329136 -58.63718578 430.79244394 -58.64986038 432.28149414 C-59.05182756 441.08869863 -59.05182756 441.08869863 -55.64805603 448.87013245 C-52.5767959 451.34038883 -50.93012175 452 -47 452 C-42.4839063 450.92473959 -40.54338329 448.80653211 -38 445 C-37.40055371 441.91107812 -37.40055371 441.91107812 -37.4853363 438.51673889 C-37.47261185 437.2059285 -37.45988739 435.8951181 -37.44677734 434.54458618 C-37.45295932 433.09881411 -37.45956532 431.6530438 -37.46655273 430.20727539 C-37.45949271 428.67933825 -37.45074734 427.1514081 -37.44044495 425.62348938 C-37.4179497 421.478772 -37.42089096 417.33443646 -37.42976642 413.18968129 C-37.434878 409.72790736 -37.42758233 406.26620508 -37.42029434 402.80443853 C-37.40329477 394.63689592 -37.40686155 386.46954014 -37.42358398 378.30200195 C-37.44050552 369.87953735 -37.42467068 361.45759101 -37.3923611 353.03518301 C-37.36565941 345.80018979 -37.35839074 338.56535784 -37.36687618 331.3303203 C-37.37180375 327.01080253 -37.36959927 322.69159659 -37.34908867 318.372118 C-37.33072227 314.30975181 -37.33670123 310.24813061 -37.36128807 306.18580437 C-37.36629303 304.69670864 -37.36281422 303.20755606 -37.35013962 301.71850586 C-36.94817244 292.91130137 -36.94817244 292.91130137 -40.35194397 285.12986755 C-44.90016367 281.47167246 -48.93061406 281.06509235 -54 284 Z " fill="#000000" transform="translate(304,17)"/>
<path d="M0 0 C3.43136379 2.70349874 6.75393023 6.09573963 7.30078125 10.578125 C7.48147285 16.17005457 6.98005319 19.33434651 3.0625 23.625 C-4.21837796 29.2327718 -12.15590346 33.92485097 -20 38.6875 C-22.24189002 40.05173589 -24.48279461 41.41759263 -26.72265625 42.78515625 C-27.78887207 43.42727051 -28.85508789 44.06938477 -29.95361328 44.73095703 C-32.91670341 46.54599667 -32.91670341 46.54599667 -35.43310547 48.56201172 C-36.1757666 49.13838379 -36.91842773 49.71475586 -37.68359375 50.30859375 C-38.60483032 51.08867798 -38.60483032 51.08867798 -39.54467773 51.88452148 C-45.7293511 53.79841949 -53.87115399 48.43751522 -59.47265625 45.83203125 C-60.23678329 45.48113937 -61.00091034 45.1302475 -61.78819275 44.76872253 C-64.19416819 43.66268195 -66.59710867 42.55022241 -69 41.4375 C-70.64498467 40.67990929 -72.29016534 39.922744 -73.93554688 39.16601562 C-77.93847719 37.3239134 -81.93870183 35.47605401 -85.9375 33.625 C-85.9375 32.635 -85.9375 31.645 -85.9375 30.625 C-84.03588867 29.09790039 -84.03588867 29.09790039 -81.35546875 27.47265625 C-80.3696582 26.86671631 -79.38384766 26.26077637 -78.36816406 25.63647461 C-76.76279785 24.67173218 -76.76279785 24.67173218 -75.125 23.6875 C-72.91495491 22.33660748 -70.70532449 20.98503638 -68.49609375 19.6328125 C-66.83489502 18.62202637 -66.83489502 18.62202637 -65.14013672 17.59082031 C-61.4152113 15.30441236 -57.73615317 12.95281519 -54.0612793 10.5871582 C-36.61477751 -0.61858114 -20.51720932 -9.60380011 0 0 Z " fill="#000000" transform="translate(308.9375,117.375)"/>
<path d="M0 0 C2.82275936 1.25455972 4.46288541 2.28384722 6.3125 4.75 C7.45713591 8.49608117 7.57106992 12.17626057 6.39453125 15.93359375 C4.34378975 18.97236757 1.48242293 20.63589845 -1.5625 22.5625 C-2.91674019 23.43478169 -4.2709038 24.3071823 -5.625 25.1796875 C-6.3365625 25.6344043 -7.048125 26.08912109 -7.78125 26.55761719 C-10.06934348 28.04507937 -12.31702934 29.58186668 -14.5625 31.1328125 C-16.0624191 32.15116084 -17.56241727 33.16939272 -19.0625 34.1875 C-19.76383057 34.6812915 -20.46516113 35.17508301 -21.18774414 35.68383789 C-21.85926514 36.13235107 -22.53078613 36.58086426 -23.22265625 37.04296875 C-23.80797119 37.44539795 -24.39328613 37.84782715 -24.99633789 38.26245117 C-28.74366082 39.64184225 -32.09839915 38.34435578 -35.70068359 36.96850586 C-36.59094238 36.55479736 -37.48120117 36.14108887 -38.3984375 35.71484375 C-39.37167969 35.26689453 -40.34492188 34.81894531 -41.34765625 34.35742188 C-42.34667969 33.88884766 -43.34570312 33.42027344 -44.375 32.9375 C-45.39722656 32.46505859 -46.41945312 31.99261719 -47.47265625 31.50585938 C-49.98484671 30.34367781 -52.49374253 29.17490756 -55 28 C-55 27.34 -55 26.68 -55 26 C-53.8847998 25.40481567 -53.8847998 25.40481567 -52.74707031 24.79760742 C-49.88877727 23.2713494 -47.03121859 21.7437248 -44.17391968 20.21560669 C-42.25185647 19.18849206 -40.32871363 18.16341929 -38.40551758 17.13842773 C-32.54294973 14.00845857 -26.70110994 10.85792789 -20.93359375 7.5546875 C-20.03801758 7.04526611 -19.14244141 6.53584473 -18.21972656 6.01098633 C-16.57512055 5.07023744 -14.9372541 4.11757063 -13.30761719 3.15112305 C-8.68776961 0.51950677 -5.46609303 -0.63384869 0 0 Z " fill="#000000" transform="translate(228,100)"/>
<path d="M0 0 C2.18778448 2.18778448 2.64892941 3.46031125 3.60400391 6.35791016 C3.90416412 7.25869293 4.20432434 8.15947571 4.51358032 9.08755493 C4.83136444 10.06155243 5.14914856 11.03554993 5.4765625 12.0390625 C5.80667328 13.03505463 6.13678406 14.03104675 6.47689819 15.05722046 C7.53190035 18.24465054 8.57853193 21.43475911 9.625 24.625 C10.33799284 26.78403549 11.05152765 28.94289208 11.765625 31.1015625 C13.51671519 36.39898039 15.26093735 41.6986223 17 47 C16.01 47.495 16.01 47.495 15 48 C12.6872981 47.03930991 10.50457512 46.01979808 8.27734375 44.88671875 C7.61666397 44.55710648 6.95598419 44.2274942 6.27528381 43.88789368 C4.87714108 43.18799117 3.48098259 42.48411313 2.08666992 41.77661133 C-0.05230214 40.69266786 -2.19831979 39.62380567 -4.34570312 38.55664062 C-5.70096786 37.87588922 -7.05580065 37.19427709 -8.41015625 36.51171875 C-9.05493423 36.19079758 -9.69971222 35.8698764 -10.36402893 35.53923035 C-14.8846762 33.2306476 -14.8846762 33.2306476 -16 31 C-15.02703384 28.68753933 -13.99533983 26.5042396 -12.8515625 24.27734375 C-12.51957855 23.61666397 -12.1875946 22.95598419 -11.84555054 22.27528381 C-11.1412942 20.87720892 -10.4332253 19.48104909 -9.72167969 18.08666992 C-8.62954624 15.9464093 -7.54813822 13.80100898 -6.46875 11.65429688 C-5.78447204 10.29916699 -5.09959619 8.94433882 -4.4140625 7.58984375 C-3.92493881 6.62267677 -3.92493881 6.62267677 -3.42593384 5.63597107 C-1.11829304 1.11829304 -1.11829304 1.11829304 0 0 Z " fill="#000000" transform="translate(147,294)"/>
</svg>
