<?xml version="1.0" encoding="UTF-8"?>
<svg version="1.1" xmlns="http://www.w3.org/2000/svg" width="512" height="512">
<path d="M0 0 C1.43013428 0.02187378 1.43013428 0.02187378 2.88916016 0.04418945 C24.95592871 0.77999678 44.2445897 15.11936275 62.84277344 25.83251953 C70.34499324 30.14692647 77.91612368 34.33165825 85.5 38.5 C94.23770429 43.30315349 102.95526717 48.13724923 111.625 53.0625 C120.25456075 57.96409662 128.92941753 62.77944791 137.625 67.5625 C147.3285786 72.90076677 157.00628657 78.28075965 166.63330078 83.75634766 C171.66656552 86.61738937 176.7153134 89.44563808 181.7890625 92.234375 C182.90829102 92.85231934 184.02751953 93.47026367 185.18066406 94.10693359 C187.32237425 95.2880562 189.46733845 96.4633065 191.61621094 97.63134766 C205.48909882 105.30226544 217.81144527 115.06181167 223.125 130.5625 C225.74521096 142.12309162 225.40818913 153.8145992 225.38378906 165.59399414 C225.38650328 167.80301529 225.39006662 170.01203553 225.39440918 172.22105408 C225.40348363 178.18786463 225.40000953 184.1546056 225.39365101 190.12141728 C225.38856598 196.383147 225.39328934 202.64487099 225.39642334 208.90660095 C225.40028766 220.09039529 225.39409682 231.27416423 225.38390467 242.45795249 C225.37496843 252.57655747 225.37652497 262.69511655 225.38574219 272.8137207 C225.39647007 284.59605442 225.4004162 296.37836582 225.39451766 308.16070455 C225.39140833 314.38608396 225.39096011 320.61143181 225.39759064 326.83680916 C225.40339005 332.69000313 225.39931981 338.54311084 225.38780212 344.39629555 C225.38516952 346.5375784 225.38589655 348.67886858 225.39032745 350.82014847 C225.42518947 369.38667797 225.15194029 386.08297637 212.125 400.5625 C206.50312389 406.10112949 200.66425386 410.36165685 193.75 414.125 C192.8542627 414.62475342 191.95852539 415.12450684 191.03564453 415.6394043 C189.09361394 416.72101434 187.14868437 417.79743256 185.20117188 418.86914062 C182.0289634 420.61536586 178.86528411 422.37627316 175.703125 424.140625 C170.00918096 427.31490253 164.30843852 430.47673813 158.60546875 433.63476562 C152.90138178 436.79409999 147.20042175 439.95905828 141.5 443.125 C139.82236572 444.05662964 139.82236572 444.05662964 138.11083984 445.00708008 C129.57723154 449.74886692 121.05778976 454.51559319 112.54296875 459.29101562 C104.87353756 463.58995908 97.18896856 467.86111743 89.5 472.125 C81.18795781 476.73543798 72.89472647 481.37661016 64.625 486.0625 C62.76045152 487.11464509 60.89586776 488.16672768 59.03125 489.21875 C55.34289191 491.30129232 51.66467146 493.40041221 47.99299622 495.51222229 C17.88958266 512.80193795 17.88958266 512.80193795 0.125 513.1875 C-0.7410083 513.21126709 -1.6070166 513.23503418 -2.49926758 513.25952148 C-16.17443662 513.08786664 -28.16650157 506.78454892 -39.75 500.125 C-41.01150661 499.41290163 -42.27372948 498.70207083 -43.53662109 497.99243164 C-46.09664946 496.55147982 -48.65261739 495.10372786 -51.20507812 493.64941406 C-55.60687095 491.14262156 -60.02898749 488.67260798 -64.45166016 486.20288086 C-67.51425609 484.49203618 -70.5737563 482.77575822 -73.6328125 481.05859375 C-80.20309355 477.37437257 -86.78824135 473.71715848 -93.375 470.0625 C-103.08326457 464.67526696 -112.77680252 459.26250188 -122.4609375 453.83203125 C-130.08873043 449.55700876 -137.72933807 445.30547037 -145.375 441.0625 C-157.26543796 434.46087962 -169.15268779 427.85419166 -181.00048828 421.17626953 C-183.76342477 419.62513906 -186.53518869 418.09090386 -189.30859375 416.55859375 C-204.71717102 407.96670747 -216.98552335 398.67186754 -223.1484375 381.49609375 C-224.89815946 374.43135617 -225.02198906 367.22497944 -225.00871277 359.98112488 C-225.01097833 359.05901901 -225.01324388 358.13691314 -225.01557809 357.18686467 C-225.0218712 354.11959925 -225.02109176 351.05237855 -225.02026367 347.98510742 C-225.02325807 345.77667687 -225.02666125 343.56824685 -225.03044128 341.3598175 C-225.03925642 335.37626168 -225.04161834 329.39272016 -225.04225707 323.40915847 C-225.04296893 319.66701532 -225.04510582 315.92487578 -225.04775429 312.18273354 C-225.05652258 299.790412 -225.06117502 287.39809741 -225.06042381 275.00577315 C-225.06038386 274.33895346 -225.0603439 273.67213377 -225.06030273 272.98510742 C-225.06026185 272.31746572 -225.06022097 271.64982402 -225.06017885 270.96195076 C-225.05977253 260.14564946 -225.06934098 249.32938299 -225.0834411 238.51309177 C-225.09783307 227.38438527 -225.10452695 216.25569313 -225.10384732 205.12697679 C-225.10359285 198.88811927 -225.10641645 192.64930121 -225.11702538 186.41045189 C-225.12673438 180.54090252 -225.12676632 174.67143011 -225.11950874 168.80187798 C-225.11846642 166.65414568 -225.12080476 164.50640852 -225.1268692 162.35868454 C-225.17593242 143.77148639 -224.91786151 127.05972016 -211.875 112.5625 C-206.25312389 107.02387051 -200.41425386 102.76334315 -193.5 99 C-192.15639404 98.25036987 -192.15639404 98.25036987 -190.78564453 97.4855957 C-188.84361394 96.40398566 -186.89868437 95.32756744 -184.95117188 94.25585938 C-181.7789634 92.50963414 -178.61528411 90.74872684 -175.453125 88.984375 C-169.75918096 85.81009747 -164.05843852 82.64826187 -158.35546875 79.49023438 C-152.65138178 76.33090001 -146.95042175 73.16594172 -141.25 70 C-140.13157715 69.37891357 -139.0131543 68.75782715 -137.86083984 68.11791992 C-129.32723154 63.37613308 -120.80778976 58.60940681 -112.29296875 53.83398438 C-104.62353779 49.53504104 -96.93899371 45.26383694 -89.25 41 C-81.90862142 36.92847332 -74.57728157 32.84119731 -67.27539062 28.69921875 C-63.52510033 26.57203087 -59.76943617 24.45441851 -56.01367188 22.33691406 C-53.7625617 21.06427337 -51.51394835 19.78778095 -49.26757812 18.50683594 C-46.06721536 16.68276193 -42.8593607 14.87243584 -39.64715576 13.06930542 C-38.40637479 12.36995651 -37.16801689 11.66628656 -35.93243408 10.95779419 C-24.41020688 4.35692706 -13.4333616 -0.23177883 0 0 Z M-29.25 33.0625 C-30.95772583 33.99280029 -30.95772583 33.99280029 -32.69995117 34.94189453 C-40.41784768 39.16323475 -48.07362684 43.48745684 -55.69335938 47.88305664 C-63.1606747 52.18325382 -70.69874515 56.34988005 -78.25 60.5 C-87.02824955 65.32578102 -95.78766896 70.18076362 -104.5 75.125 C-118.4005992 83.01225416 -132.38249385 90.75241788 -146.36425781 98.49462891 C-153.14739784 102.25090429 -159.92526086 106.01636664 -166.69628906 109.79443359 C-169.78948429 111.51493435 -172.89039107 113.2208503 -175.9921875 114.92578125 C-177.87015561 115.97070034 -179.7477797 117.01623804 -181.625 118.0625 C-182.46401855 118.51842529 -183.30303711 118.97435059 -184.16748047 119.4440918 C-192.90403986 124.35381227 -198.70802851 129.89712937 -201.875 139.5625 C-202.39287831 142.87651479 -202.42112246 146.11143592 -202.3896637 149.46104431 C-202.39660922 150.41722973 -202.40355475 151.37341515 -202.41071075 152.35857588 C-202.42890969 155.54129446 -202.41873607 158.72326165 -202.40844727 161.90600586 C-202.4155093 164.19650324 -202.42425551 166.48699596 -202.43455505 168.77748108 C-202.45702637 174.9841099 -202.45411448 181.19048343 -202.44523358 187.3971374 C-202.44011785 192.58354402 -202.44742102 197.76990291 -202.45470566 202.95630461 C-202.47266817 215.89258182 -202.46630133 228.82870093 -202.44853585 241.76497079 C-202.43384133 252.98363368 -202.44846748 264.20202869 -202.47730602 275.42065709 C-202.50674264 286.95845496 -202.51715244 298.49609965 -202.50812382 310.03393656 C-202.50319887 316.50418278 -202.50538727 322.97422082 -202.52591133 329.44444084 C-202.5442893 335.52917709 -202.5382831 341.61341618 -202.51371193 347.69812584 C-202.50871096 349.92732242 -202.51217513 352.15655702 -202.52486038 354.38572311 C-202.54084484 357.43670679 -202.52578833 360.48606406 -202.50318909 363.53697205 C-202.51502482 364.41218646 -202.52686054 365.28740086 -202.53905493 366.18913692 C-202.42806811 373.60022116 -200.04070876 380.04371179 -195.03896815 385.60330909 C-189.88167181 390.50417945 -183.65622083 393.77020221 -177.4375 397.125 C-175.19646379 398.35649646 -172.95558264 399.58827513 -170.71484375 400.8203125 C-169.00723877 401.75278809 -169.00723877 401.75278809 -167.26513672 402.70410156 C-161.98805266 405.59688306 -156.7455493 408.55055416 -151.5 411.5 C-142.76270501 416.39800333 -134.00950263 421.26684604 -125.25 426.125 C-116.93800368 430.73547724 -108.6437295 435.3748695 -100.375 440.0625 C-88.73488891 446.66031832 -77.03879444 453.15550152 -65.33642578 459.64208984 C-61.86708418 461.56689172 -58.39998444 463.49567071 -54.93359375 465.42578125 C-49.32638048 468.54790743 -43.7150167 471.66245249 -38.10107422 474.77246094 C-35.95533415 475.96305926 -33.81111771 477.15640779 -31.66845703 478.35253906 C-28.65755422 480.03323937 -25.64186692 481.70503532 -22.625 483.375 C-21.7383667 483.87281982 -20.8517334 484.37063965 -19.93823242 484.88354492 C-13.50709967 488.42575319 -7.58192831 490.83450375 -0.125 490.9375 C0.79796875 490.96585937 1.7209375 490.99421875 2.671875 491.0234375 C12.40346107 489.72442488 21.01973321 484.73583588 29.5 480.0625 C30.63848389 479.4422998 31.77696777 478.82209961 32.94995117 478.18310547 C40.66784768 473.96176525 48.32362684 469.63754316 55.94335938 465.24194336 C63.41067219 460.94174763 70.94870041 456.77503516 78.5 452.625 C87.23775688 447.82194423 95.95526895 442.98774976 104.625 438.0625 C113.25456251 433.16090238 121.92947061 428.34565059 130.625 423.5625 C141.29876431 417.68992427 151.93621701 411.75805119 162.5234375 405.73046875 C166.46769292 403.48830156 170.43355179 401.29040931 174.4140625 399.11328125 C175.45320801 398.53989014 176.49235352 397.96649902 177.56298828 397.37573242 C179.53787683 396.28688261 181.51770576 395.20692295 183.50341797 394.13793945 C192.66959404 389.05706591 198.79286295 383.70332125 202.125 373.5625 C202.64326607 370.24854289 202.6711224 367.01355772 202.6396637 363.66395569 C202.65008199 362.22967756 202.65008199 362.22967756 202.66071075 360.76642412 C202.67890969 357.58370554 202.66873607 354.40173835 202.65844727 351.21899414 C202.6655093 348.92849676 202.67425551 346.63800404 202.68455505 344.34751892 C202.70702637 338.1408901 202.70411448 331.93451657 202.69523358 325.7278626 C202.69011785 320.54145598 202.69742102 315.35509709 202.70470566 310.16869539 C202.72266817 297.23241818 202.71630133 284.29629907 202.69853585 271.36002921 C202.68384133 260.14136632 202.69846748 248.92297131 202.72730602 237.70434291 C202.75674264 226.16654504 202.76715244 214.62890035 202.75812382 203.09106344 C202.75319887 196.62081722 202.75538727 190.15077918 202.77591133 183.68055916 C202.7942893 177.59582291 202.7882831 171.51158382 202.76371193 165.42687416 C202.75871096 163.19767758 202.76217513 160.96844298 202.77486038 158.73927689 C202.79084484 155.68829321 202.77578833 152.63893594 202.75318909 149.58802795 C202.76502482 148.71281354 202.77686054 147.83759914 202.78905493 146.93586308 C202.67776467 139.50451687 200.29542686 133.01840624 195.22210413 127.4882589 C190.61019498 123.18059487 185.31797582 120.08437077 179.8125 117.0625 C178.91225098 116.55823486 178.01200195 116.05396973 177.08447266 115.53442383 C174.10312765 113.86769362 171.11424653 112.21501099 168.125 110.5625 C165.98265796 109.36923427 163.84074063 108.17520577 161.69921875 106.98046875 C156.00627574 103.80804621 150.30688372 100.6474009 144.60546875 97.49023438 C138.90138178 94.33090001 133.20042175 91.16594172 127.5 88 C126.38157715 87.37891357 125.2631543 86.75782715 124.11083984 86.11791992 C115.57580072 81.37533803 107.05513686 76.6074486 98.53857422 71.83178711 C89.77934971 66.92256657 81.00235866 62.04572078 72.22192383 57.17456055 C65.62316265 53.51185602 59.03359707 49.83339934 52.453125 46.13793945 C48.35364624 43.83676283 44.25058662 41.54204473 40.14599609 39.25 C38.11156812 38.11358767 36.07805612 36.97553416 34.04541016 35.8359375 C31.07632058 34.17427165 28.10153249 32.52328808 25.125 30.875 C24.24739014 30.38169189 23.36978027 29.88838379 22.46557617 29.38012695 C15.44464006 25.51471346 8.41506706 22.13656525 0.25 22.125 C-0.65492188 22.10566406 -1.55984375 22.08632813 -2.4921875 22.06640625 C-12.19295331 23.48903588 -20.77230136 28.39057939 -29.25 33.0625 Z " fill="#FFFFFF" transform="translate(255.875,-0.5625)"/>
<path d="M0 0 C7.10647032 4.24379323 12.09121885 9.58101047 15.2109375 17.3203125 C15.2109375 18.3103125 15.2109375 19.3003125 15.2109375 20.3203125 C16.15453125 19.84980469 17.098125 19.37929687 18.0703125 18.89453125 C34.22489762 10.98661835 50.62185464 7.09987156 68.36328125 12.2734375 C80.84891019 16.86349039 89.19431457 22.26894428 95.2109375 34.3203125 C98.62695654 42.65121607 98.75755884 54.18697997 95.7734375 62.7578125 C90.1520762 74.154545 80.28915977 80.33820674 69.81835938 86.72216797 C66.92887568 88.49319421 64.06134585 90.29674973 61.1953125 92.10546875 C50.40047763 98.90617299 50.40047763 98.90617299 46.14208984 101.51367188 C44.12077207 102.75952824 42.11664022 104.0335552 40.12744141 105.33007812 C39.10956543 105.97138672 38.09168945 106.61269531 37.04296875 107.2734375 C36.13909424 107.85770508 35.23521973 108.44197266 34.30395508 109.04394531 C28.80089053 111.31484447 23.62399349 111.10714278 18.11010742 108.90258789 C16.71237607 108.25847729 15.32298448 107.59603438 13.94140625 106.91796875 C13.18032059 106.56198105 12.41923492 106.20599335 11.63508606 105.83921814 C9.21492138 104.70308 6.80671634 103.5438993 4.3984375 102.3828125 C2.82693988 101.63835059 1.25467763 100.89550055 -0.31835938 100.15429688 C-2.70224445 99.03041564 -5.08542091 97.90521956 -7.46582031 96.77397156 C-15.68291816 92.87276175 -23.97760946 89.15091996 -32.28244019 85.44107056 C-36.43100842 83.58616755 -40.57461867 81.72025765 -44.71875 79.85546875 C-46.36490289 79.11538387 -48.01106176 78.37531228 -49.65722656 77.63525391 C-53.07924148 76.09631434 -56.50037308 74.555431 -59.92089844 73.01318359 C-61.66079353 72.22881063 -63.40070223 71.44446783 -65.140625 70.66015625 C-65.9812146 70.28121216 -66.8218042 69.90226807 -67.68786621 69.51184082 C-72.49247198 67.34797785 -77.30438495 65.20217009 -82.125 63.07421875 C-83.66244873 62.39057251 -83.66244873 62.39057251 -85.23095703 61.69311523 C-87.03333253 60.89221616 -88.83876664 60.09814541 -90.64794922 59.31274414 C-94.69036069 57.50708878 -98.06673789 55.95711308 -100.7890625 52.3203125 C-102.086183 48.35807009 -102.2026065 44.59048337 -100.9140625 40.6328125 C-93.99326286 33.10135407 -83.5609053 28.87970676 -74.6015625 24.1953125 C-71.73967298 22.68979709 -68.87960019 21.18084549 -66.01953125 19.671875 C-65.31413208 19.30026245 -64.60873291 18.9286499 -63.88195801 18.54577637 C-56.83467151 14.82850383 -49.84129554 11.01494276 -42.86645508 7.16357422 C-29.17224432 -0.36997339 -15.52296506 -7.37469769 0 0 Z M-25.078125 22.66015625 C-26.07675064 23.19981773 -26.07675064 23.19981773 -27.09555054 23.75038147 C-29.21274255 24.90060147 -31.31298317 26.07846733 -33.4140625 27.2578125 C-34.79976965 28.01552483 -36.18648323 28.77139964 -37.57421875 29.52539062 C-46.38241892 34.33216464 -55.09270138 39.31473963 -63.7890625 44.3203125 C-63.7890625 44.9803125 -63.7890625 45.6403125 -63.7890625 46.3203125 C-60.23996633 48.05756984 -56.67313692 49.75481211 -53.1015625 51.4453125 C-52.09416016 51.93902344 -51.08675781 52.43273437 -50.04882812 52.94140625 C-49.07236328 53.39902344 -48.09589844 53.85664063 -47.08984375 54.328125 C-46.19434814 54.75754395 -45.29885254 55.18696289 -44.3762207 55.62939453 C-40.22610922 56.73770967 -37.89880316 54.95948436 -34.32885742 52.90332031 C-33.48427979 52.36545898 -32.63970215 51.82759766 -31.76953125 51.2734375 C-30.82916016 50.6753125 -29.88878906 50.0771875 -28.91992188 49.4609375 C-27.94861328 48.83703125 -26.97730469 48.213125 -25.9765625 47.5703125 C-25.01685547 46.961875 -24.05714844 46.3534375 -23.06835938 45.7265625 C-13.19894649 40.26749091 -13.19894649 40.26749091 -5.7890625 32.3203125 C-5.4166129 28.37234676 -5.43970615 25.98991217 -7.2890625 22.4453125 C-13.08526521 17.5185402 -19.02575241 19.19543247 -25.078125 22.66015625 Z M5.75 53.703125 C1.34972654 56.50576071 -3.06422302 59.28672807 -7.4765625 62.0703125 C-9.0846946 63.08584379 -10.69277318 64.10145984 -12.30078125 65.1171875 C-13.46354167 65.8515625 -14.62630208 66.5859375 -15.7890625 67.3203125 C-12.12520569 70.41133628 -8.03283559 72.2004612 -3.69921875 74.1484375 C-2.91767929 74.50170105 -2.13613983 74.8549646 -1.33091736 75.21893311 C0.31776438 75.96125177 1.96773392 76.700716 3.61889648 77.4375 C6.14212336 78.56748482 8.65587396 79.71695344 11.16992188 80.8671875 C12.77549567 81.58715635 14.38159855 82.3059467 15.98828125 83.0234375 C16.73738266 83.36916809 17.48648407 83.71489868 18.25828552 84.07110596 C22.26140458 85.82932479 24.92904997 86.97761274 29.2109375 85.3203125 C31.77551151 84.01422116 31.77551151 84.01422116 34.3515625 82.328125 C35.3322168 81.71050293 36.31287109 81.09288086 37.32324219 80.45654297 C38.35868164 79.79283691 39.39412109 79.12913086 40.4609375 78.4453125 C42.05663574 77.43235107 42.05663574 77.43235107 43.68457031 76.39892578 C45.84135662 75.02781201 47.99599774 73.65331777 50.1484375 72.27539062 C52.89930354 70.51925739 55.66119289 68.78283375 58.4296875 67.0546875 C59.94048824 66.1021714 61.45093204 65.14908882 62.9609375 64.1953125 C63.64446289 63.77137207 64.32798828 63.34743164 65.03222656 62.91064453 C69.46705666 60.07520569 72.80558985 57.1310078 75.2109375 52.3203125 C75.68151904 47.5203808 75.23462183 44.02564071 72.6015625 39.890625 C67.92792892 34.61309494 59.82009067 32.79712145 53.05859375 32.09765625 C35.5122724 31.38840249 19.84084339 44.71182493 5.75 53.703125 Z " fill="#FFFFFF" transform="translate(239.7890625,81.6796875)"/>
<path d="M0 0 C0.825 -0.00128906 1.65 -0.00257813 2.5 -0.00390625 C5.8905383 0.76426258 7.47261617 2.18013402 10 4.5625 C11.47558594 7.46435547 11.47558594 7.46435547 12.734375 11.0546875 C12.97758484 11.73949188 13.22079468 12.42429626 13.47137451 13.12985229 C14.33723705 15.60009937 15.17112802 18.07959745 16 20.5625 C16.32895264 21.54287231 16.65790527 22.52324463 16.99682617 23.5333252 C19.57505263 31.24699768 22.0969866 38.97876676 24.60896301 46.7142067 C26.58832471 52.8072423 28.57480941 58.89795856 30.5625 64.98828125 C30.78625557 65.6742935 31.01001114 66.36030575 31.24054718 67.06710625 C34.327078 76.52485117 37.46695147 85.96298553 40.664711 95.38369751 C41.72256059 98.50156738 42.7762834 101.62083373 43.83105469 104.73974609 C45.02990062 108.28304586 46.23271319 111.82471758 47.44885254 115.36212158 C48.56496351 118.60903768 49.66657354 121.86055871 50.765625 125.11328125 C51.0958667 126.0595488 51.4261084 127.00581635 51.76635742 127.98075867 C53.58149207 133.40289403 54.50568137 137.83791745 54 143.5625 C51.82979616 147.12783488 49.83425846 149.00636585 46 150.5625 C43.81640625 150.75 43.81640625 150.75 41.5625 150.5625 C40.82128906 150.52125 40.08007812 150.48 39.31640625 150.4375 C35.68681094 149.06645556 33.89328452 146.82137808 32 143.5625 C30.13475771 139.05915139 28.65267613 134.45913179 27.1875 129.8125 C26.78080078 128.56855469 26.37410156 127.32460938 25.95507812 126.04296875 C23 116.91450893 23 116.91450893 23 114.5625 C21.83090088 114.2224292 21.83090088 114.2224292 20.63818359 113.87548828 C15.82161901 112.13723272 11.35464574 109.86277683 6.7890625 107.5546875 C5.82092621 107.06920441 4.85278992 106.58372131 3.85531616 106.08352661 C0.77663915 104.53860983 -2.29920251 102.98814044 -5.375 101.4375 C-7.46726304 100.38635068 -9.55970896 99.3355653 -11.65234375 98.28515625 C-16.77035551 95.71515018 -21.88605337 93.14058475 -27 90.5625 C-27.30107666 91.50125977 -27.60215332 92.44001953 -27.91235352 93.40722656 C-28.95494682 96.43180027 -30.15134566 98.67644525 -31.9375 101.3125 C-32.44152344 102.07046875 -32.94554688 102.8284375 -33.46484375 103.609375 C-35 105.5625 -35 105.5625 -38 107.5625 C-42.91906075 108.04634204 -45.05848735 108.07605236 -49.4375 105.6875 C-52.05147163 103.51981621 -52.86101852 102.79275612 -53.23363781 99.49435139 C-53.42003024 92.90145911 -52.14443587 88.42207382 -49.13208008 82.61206055 C-48.72070801 81.77982468 -48.30933594 80.94758881 -47.88549805 80.09013367 C-46.53280268 77.36635431 -45.15203889 74.65797142 -43.76953125 71.94921875 C-42.81597797 70.04808001 -41.86390857 68.14619634 -40.91325378 66.24360657 C-38.92217944 62.26925595 -36.91790577 58.30195854 -34.90307617 54.33959961 C-32.32473595 49.26798097 -29.77301703 44.18354801 -27.23016834 39.09405804 C-25.26762036 35.17032332 -23.29468075 31.25189224 -21.31821251 27.33515358 C-20.37374971 25.46210149 -19.43167832 23.58784154 -18.49207497 21.71234703 C-17.17631101 19.09169455 -15.84756868 16.47805092 -14.51489258 13.8659668 C-13.93873451 12.71025177 -13.93873451 12.71025177 -13.35093689 11.53118896 C-10.37184964 5.74532775 -7.24154267 -0.19235348 0 0 Z M-2 41.5625 C-3.58475045 44.56175342 -5.16753521 47.56204008 -6.75 50.5625 C-7.1934375 51.40167969 -7.636875 52.24085938 -8.09375 53.10546875 C-8.97600058 54.77915 -9.8542896 56.45492577 -10.72851562 58.1328125 C-11.55796314 59.71780898 -12.39988924 61.29635583 -13.25585938 62.8671875 C-14.24567842 64.72757028 -15.1324325 66.64205931 -16 68.5625 C-15.29274784 71.74311078 -15.29274784 71.74311078 -12.53149414 73.11230469 C-11.46020264 73.64758789 -10.38891113 74.18287109 -9.28515625 74.734375 C-8.12435547 75.31574219 -6.96355469 75.89710938 -5.76757812 76.49609375 C-5.15986572 76.79370605 -4.55215332 77.09131836 -3.92602539 77.39794922 C-2.0666959 78.3104408 -0.21773638 79.24176945 1.63085938 80.17578125 C6.25736684 82.4989882 6.25736684 82.4989882 11 84.5625 C11.99 84.0675 11.99 84.0675 13 83.5625 C8.38 69.7025 3.76 55.8425 -1 41.5625 C-1.33 41.5625 -1.66 41.5625 -2 41.5625 Z " fill="#FFFFFF" transform="translate(149,255.4375)"/>
<path d="M0 0 C9.96820633 7.01608368 16.05628726 15.78758034 18.15625 27.7421875 C18.84996503 33.47607988 18.93623001 36.85346749 15.71875 41.6796875 C13.830347 43.93124492 12.54707443 44.53899881 9.671875 45.02734375 C5.54565779 45.2973479 3.08550935 44.86306717 -0.65625 42.9921875 C-4.32948182 39.49003771 -4.58380029 34.56434551 -5.5234375 29.78515625 C-6.73711852 24.81156651 -8.61094623 22.3040736 -13.06640625 19.59375 C-17.69672058 17.43968727 -21.31878723 17.50227948 -26.1875 18.89453125 C-32.59305874 21.29661578 -37.49488311 26.06889685 -41.28125 31.6796875 C-43.97917536 37.76374599 -44.7484362 42.74982605 -44.75 49.3671875 C-44.75761353 50.26912842 -44.76522705 51.17106934 -44.77307129 52.1003418 C-44.78381634 53.99622852 -44.78674833 55.89217416 -44.78222656 57.78808594 C-44.78125252 60.67223424 -44.82297302 63.5537336 -44.8671875 66.4375 C-44.87239435 68.28905701 -44.8750827 70.14062317 -44.875 71.9921875 C-44.89139526 72.84449951 -44.90779053 73.69681152 -44.92468262 74.57495117 C-44.83967106 82.0154866 -42.12033583 86.84060167 -36.90625 92.0546875 C-31.59791062 95.34080236 -26.64710697 96.17535934 -20.5546875 95.28125 C-15.37066604 93.90953298 -11.61654173 91.08715716 -7.96875 87.2421875 C-6.24453563 83.60217939 -5.62722334 80.56400155 -4.90625 76.6171875 C-3.37317334 68.89472156 -3.37317334 68.89472156 -0.65625 66.3046875 C3.67538345 64.21908621 7.00116011 63.76576326 11.71875 64.6796875 C15.5936181 66.65834355 16.5038968 68.15656666 18.15625 72.1796875 C20.22989593 83.19847271 15.32014896 93.50025206 9.71875 102.6796875 C3.08491629 111.57151625 -7.4605915 116.9823293 -18.28125 118.6796875 C-32.44417065 119.83192511 -43.34156078 116.79008088 -54.4765625 107.93359375 C-62.86874352 100.25937499 -67.50396734 89.6890835 -68.47583008 78.42433167 C-68.55862465 76.11666959 -68.58470297 73.81694417 -68.58203125 71.5078125 C-68.58631638 70.66353699 -68.5906015 69.81926147 -68.59501648 68.94940186 C-68.60072001 67.17461029 -68.60128967 65.39979536 -68.59692383 63.625 C-68.59377404 60.95010202 -68.61723777 58.27632352 -68.64257812 55.6015625 C-68.70750543 38.64184082 -66.31710116 22.29937185 -54.1875 9.36328125 C-38.66049006 -4.35012302 -19.19933298 -11.11194272 0 0 Z " fill="#FFFFFF" transform="translate(398.28125,267.3203125)"/>
<path d="M0 0 C1.12535156 0.04833984 1.12535156 0.04833984 2.2734375 0.09765625 C6.0001233 1.42861546 7.94716377 3.4459358 9.625 6.9375 C10.38630845 11.96439424 10.29869734 16.97366408 10.25610352 22.04321289 C10.26124486 23.59262409 10.26852777 25.14202944 10.27778625 26.69142151 C10.29627986 30.88983604 10.28337555 35.08761445 10.26369596 39.2860024 C10.24729405 43.6825732 10.25612436 48.07910422 10.26121521 52.47569275 C10.26573397 59.85735216 10.24987869 67.23875799 10.22192383 74.62036133 C10.18986096 83.15244776 10.18989291 91.68407718 10.2071386 100.21619612 C10.22300518 108.42818494 10.21627008 116.64000634 10.19920158 124.85198784 C10.19233211 128.34513243 10.19336241 131.83814278 10.20074654 135.33128548 C10.20841089 139.44449108 10.19627881 143.55717684 10.16889763 147.67029381 C10.16201467 149.17914919 10.16191492 150.68805313 10.16911316 152.19690704 C10.17781236 154.25795398 10.16184789 156.31739814 10.1396637 158.37831116 C10.13685678 159.53105561 10.13404985 160.68380007 10.13115788 161.87147617 C9.51673619 165.59330212 8.2105392 167.24400053 5.625 169.9375 C2.35565722 172.22603994 -0.4448152 172.40912218 -4.375 171.9375 C-8.0328218 169.89756092 -10.04446174 168.43330738 -12.375 164.9375 C-12.63506222 162.11757183 -12.63506222 162.11757183 -12.64915466 158.61882019 C-12.65439134 157.97528904 -12.65962802 157.33175789 -12.66502339 156.66872579 C-12.68004651 154.50849877 -12.68072903 152.34850813 -12.68139648 150.18823242 C-12.6890165 148.64089049 -12.69744372 147.09355236 -12.70661926 145.54621887 C-12.72858838 141.33950897 -12.73736653 137.13287177 -12.74244571 132.92611098 C-12.74608681 130.2979793 -12.75232561 127.66986673 -12.7594471 125.04174232 C-12.78395117 115.87311591 -12.7969953 106.70454615 -12.80053711 97.53588867 C-12.80417188 88.98966896 -12.83406042 80.4438085 -12.87594169 71.89769858 C-12.91063614 64.56086215 -12.92608541 57.2241448 -12.92678314 49.88722688 C-12.92757633 45.50504788 -12.93633367 41.12323461 -12.96478081 36.74114037 C-12.9909468 32.61811686 -12.99317529 28.49576262 -12.97712517 24.37269402 C-12.9753094 22.86100557 -12.98201309 21.34927878 -12.99794388 19.83767319 C-13.12502379 6.99461849 -13.12502379 6.99461849 -10.02503967 3.0539093 C-6.60517012 0.32268841 -4.2619041 -0.28364208 0 0 Z " fill="#FFFFFF" transform="translate(257.375,298.0625)"/>
<path d="M0 0 C3.97597171 2.14090784 6.35608239 3.786014 8 8 C8.22265625 10.1484375 8.22265625 10.1484375 8.0625 12.375 C8.03285156 13.10460937 8.00320313 13.83421875 7.97265625 14.5859375 C4.87261994 22.28000352 -5.2024606 25.94328178 -12.12988281 29.35668945 C-13.34813406 29.96592863 -14.56594668 30.57604556 -15.78335571 31.18696594 C-19.06783819 32.83204321 -22.35833967 34.46472306 -25.65017033 36.09503579 C-29.10088934 37.8065587 -32.54604909 39.52920207 -35.99188232 41.25053406 C-41.77191126 44.13595825 -47.55554356 47.01404246 -53.34179688 49.88696289 C-61.50441427 53.93979292 -69.66005724 58.00650517 -77.8145318 62.075688 C-83.46736388 64.89587956 -89.1218366 67.71277969 -94.77662563 70.52904487 C-96.1468389 71.21147098 -97.51700743 71.89398694 -98.88713169 72.57659173 C-102.78850817 74.52013143 -106.6908953 76.46161176 -110.59495163 78.39976311 C-112.34237111 79.26776905 -114.08884681 80.13767412 -115.83529663 81.00762939 C-117.39134109 81.77920128 -117.39134109 81.77920128 -118.9788208 82.56636047 C-120.3326631 83.2391024 -120.3326631 83.2391024 -121.71385574 83.92543507 C-126.48971837 86.17025164 -130.78956518 86.68558353 -136 86 C-138.87029869 84.20606332 -140.49131638 83.01736724 -142 80 C-142.2734375 78.046875 -142.2734375 78.046875 -142.375 75.75 C-142.44847656 74.62851563 -142.44847656 74.62851563 -142.5234375 73.484375 C-141.7347663 69.74112962 -139.78478734 67.49055177 -137 65 C-133.05431376 62.52817475 -128.90834794 60.50691796 -124.72998047 58.4597168 C-123.47244379 57.83111738 -122.2155215 57.2012876 -120.95916748 56.57032776 C-117.56060902 54.86791954 -114.15368551 53.18292435 -110.74490118 51.50110602 C-107.1753012 49.73638701 -103.61351837 47.95602686 -100.05081177 46.17744446 C-94.07178139 43.19527573 -88.08778189 40.22329743 -82.10009766 37.25854492 C-73.65305787 33.07604301 -65.21520153 28.87527728 -56.77908492 24.67079675 C-50.22683632 21.40598734 -43.67228607 18.14580147 -37.1171875 14.88671875 C-36.4140434 14.53709949 -35.71089931 14.18748024 -34.98644781 13.82726645 C-30.94808489 11.81974796 -26.9085456 9.81462998 -22.86724091 7.81303978 C-21.05779126 6.91638333 -19.24926577 6.01786271 -17.44076538 5.11929321 C-16.36685547 4.58808365 -15.29294556 4.05687408 -14.18649292 3.50956726 C-13.25183638 3.04632396 -12.31717983 2.58308065 -11.35420036 2.10579967 C-7.37689411 0.23760527 -4.38145708 -0.42955462 0 0 Z " fill="#FFFFFF" transform="translate(430,170)"/>
<path d="M0 0 C1.27472762 0.63507488 2.55005882 1.2689395 3.82594299 1.90168762 C7.27848682 3.61843422 10.72204396 5.35252396 14.16401839 7.09034443 C17.77172591 8.90867248 21.3867535 10.71233709 25.00080872 12.51800537 C31.06724258 15.55171686 37.12809603 18.59634432 43.18554688 21.64794922 C50.18465212 25.17381885 57.19135478 28.68418868 64.20255584 32.18593717 C70.95375679 35.55807781 77.70035779 38.9393154 84.44460487 42.32534027 C87.31200738 43.76488756 90.18081799 45.20157053 93.05077171 46.63602448 C96.43051002 48.32595664 99.80608797 50.02392978 103.17864037 51.72815514 C104.41563382 52.35168512 105.65398547 52.97252911 106.89378738 53.59045601 C108.5882339 54.43557031 110.27725392 55.29153853 111.96598816 56.14801025 C112.91187396 56.62365543 113.85775976 57.09930061 114.83230877 57.58935928 C118.09805038 59.55608837 120.61647144 61.65921242 122.33520508 65.09667969 C122.89033323 69.72881462 122.97162928 73.07840096 120.46020508 77.09667969 C117.25030828 80.11775903 114.69324079 80.68444129 110.25708008 80.62792969 C104.2427223 79.53441009 98.92057527 76.12229204 93.5769043 73.26416016 C90.60023485 71.71390604 87.57027987 70.29538476 84.5256567 68.88438988 C77.37360949 65.56200917 70.33212904 62.09465485 63.37597656 58.37939453 C54.77553481 53.82133271 46.09969893 49.43607774 37.37370491 45.1241951 C34.9122159 43.9071316 32.45273489 42.68609157 29.99375916 41.46395874 C23.02010117 37.9981805 16.04508363 34.53520243 9.06396484 31.08447266 C4.75276566 28.95311884 0.44550396 26.81398822 -3.85928535 24.6697197 C-5.48729629 23.86064833 -7.11676234 23.05449784 -8.74772453 22.25139236 C-11.01410191 21.13506898 -13.27532839 20.00890513 -15.53564453 18.88037109 C-16.53528229 18.39251633 -16.53528229 18.39251633 -17.55511475 17.89480591 C-21.81579061 15.75048402 -25.77859564 13.63527139 -27.41479492 8.94824219 C-27.8912568 4.70475362 -27.91130874 2.59883746 -25.97729492 -1.34082031 C-17.93970164 -10.2473426 -8.99852498 -4.5734958 0 0 Z " fill="#FFFFFF" transform="translate(101.664794921875,175.9033203125)"/>
</svg>
