<?xml version="1.0" encoding="UTF-8"?>
<svg version="1.1" xmlns="http://www.w3.org/2000/svg" width="512" height="512">
<path d="M0 0 C0.91934326 0.00902344 1.83868652 0.01804688 2.78588867 0.02734375 C22.57050296 0.52835218 39.57567062 12.27699653 56.29296875 21.8125 C63.22050604 25.7556174 70.20205683 29.598434 77.1875 33.4375 C86.85868731 38.75621863 96.49495346 44.13177817 106.09472656 49.57861328 C116.77086374 55.63065551 127.50598571 61.57594587 138.23925781 67.52587891 C147.28017856 72.53794414 156.31682822 77.55765567 165.35009766 82.58349609 C168.71394396 84.45219023 172.08142661 86.31420965 175.44921875 88.17578125 C217.87339425 111.6815325 217.87339425 111.6815325 224.04040539 132.67789865 C225.06529423 137.04864224 225.10490043 141.27470367 225.07518005 145.74655151 C225.08325836 147.22899721 225.08325836 147.22899721 225.09149987 148.7413913 C225.10571658 152.02677981 225.09869118 155.31176182 225.09155273 158.59716797 C225.09725959 160.96338218 225.10422507 163.32959364 225.11235046 165.69580078 C225.13026236 172.10494069 225.12911708 178.51394354 225.12340808 184.92310095 C225.12033998 188.93109057 225.12331133 192.93906838 225.12788582 196.94705582 C225.12863424 197.61387366 225.12938266 198.28069151 225.13015376 198.96771596 C225.13168535 200.32266585 225.1332237 201.67761573 225.13476873 203.03256561 C225.1484748 215.71930216 225.14306954 228.40597694 225.13158352 241.09271206 C225.12165412 252.67851293 225.13459005 264.26415404 225.15851771 275.84993027 C225.18294811 287.76969219 225.19250686 299.68937982 225.18586498 311.60916626 C225.18238137 318.29181091 225.18488604 324.97435116 225.20211601 331.65697861 C225.21761606 337.94275525 225.21359525 344.22822756 225.19481087 350.51399231 C225.19113346 352.81491667 225.19420857 355.11586373 225.20469666 357.41676712 C225.27956649 375.20623396 223.94305869 387.79661382 211.75 401.63671875 C203.48250128 409.85992729 192.82116028 414.90040688 182.6875 420.4375 C180.35223489 421.72544014 178.01753094 423.01434736 175.68359375 424.3046875 C171.9760524 426.35333741 168.26770293 428.40047074 164.5559082 430.44140625 C157.03091888 434.58012274 149.5317035 438.76123686 142.0625 443 C130.46114943 449.58265152 118.80184486 456.05883614 107.13574219 462.52587891 C92.76442743 470.49298416 78.39921129 478.47076648 64.0625 486.5 C63.04897461 487.0664624 62.03544922 487.6329248 60.99121094 488.21655273 C55.63100539 491.21514688 50.2842739 494.23516821 44.953125 497.28515625 C43.84146973 497.91736084 42.72981445 498.54956543 41.58447266 499.20092773 C39.47601351 500.40052488 37.37121201 501.60658531 35.27099609 502.82055664 C19.93027573 511.52235512 4.56631505 514.7754549 -12.953125 511.82421875 C-27.92375283 507.55495679 -41.64872468 498.64199852 -55.06640625 490.98828125 C-61.53894084 487.29890581 -68.04695286 483.67524362 -74.5625 480.0625 C-75.68793213 479.43802979 -76.81336426 478.81355957 -77.97290039 478.17016602 C-81.41902463 476.25853868 -84.86567308 474.34786001 -88.3125 472.4375 C-102.06147558 464.81730506 -115.7976449 457.1788174 -129.46972656 449.42138672 C-137.21844647 445.03453823 -145.01114525 440.72967244 -152.8125 436.4375 C-164.53676658 429.98422722 -176.23765959 423.49281402 -187.8515625 416.84228516 C-190.14483747 415.53320736 -192.44674178 414.24061376 -194.75 412.94921875 C-208.48987823 405.13475614 -218.12854398 395.62726297 -222.66416943 380.19833732 C-223.69065931 375.82715431 -223.7299053 371.60102913 -223.70018005 367.12844849 C-223.70556559 366.14015136 -223.71095113 365.15185423 -223.71649987 364.1336087 C-223.73071658 360.84822019 -223.72369118 357.56323818 -223.71655273 354.27783203 C-223.72225959 351.91161782 -223.72922507 349.54540636 -223.73735046 347.17919922 C-223.75526236 340.77005931 -223.75411708 334.36105646 -223.74840808 327.95189905 C-223.74533998 323.94390943 -223.74831133 319.93593162 -223.75288582 315.92794418 C-223.75363424 315.26112634 -223.75438266 314.59430849 -223.75515376 313.90728404 C-223.75668535 312.55233415 -223.7582237 311.19738427 -223.75976873 309.84243439 C-223.7734748 297.15569784 -223.76806954 284.46902306 -223.75658352 271.78228794 C-223.74665412 260.19648707 -223.75959005 248.61084596 -223.78351771 237.02506973 C-223.80794811 225.10530781 -223.81750686 213.18562018 -223.81086498 201.26583374 C-223.80738137 194.58318909 -223.80988604 187.90064884 -223.82711601 181.21802139 C-223.84261606 174.93224475 -223.83859525 168.64677244 -223.81981087 162.36100769 C-223.81613346 160.06008333 -223.81920857 157.75913627 -223.82969666 155.45823288 C-223.89908592 138.97098056 -223.13547293 126.69390367 -212.3125 113.4375 C-211.82394531 112.82390625 -211.33539063 112.2103125 -210.83203125 111.578125 C-205.23502667 105.30487565 -197.55077817 101.50271902 -190.3125 97.4375 C-189.35730469 96.90092773 -188.40210938 96.36435547 -187.41796875 95.81152344 C-180.58917456 91.9868034 -173.74178476 88.19622593 -166.88964844 84.41357422 C-161.14989549 81.24433406 -155.41886831 78.05937014 -149.6875 74.875 C-148.56956055 74.25415527 -147.45162109 73.63331055 -146.29980469 72.99365234 C-137.76420104 68.25096327 -129.24311246 63.48271529 -120.72607422 58.70678711 C-111.96312494 53.79547897 -103.18206249 48.91717713 -94.3984375 44.04296875 C-86.86028501 39.85799444 -79.33292938 35.65422923 -71.8125 31.4375 C-67.6462756 29.10337635 -63.47948772 26.77026062 -59.3125 24.4375 C-58.73916931 24.1163623 -58.16583862 23.79522461 -57.57513428 23.46435547 C-53.96904543 21.44467932 -50.36128554 19.42803801 -46.75146484 17.41503906 C-45.06506853 16.47381648 -43.38015986 15.52992999 -41.6953125 14.5859375 C-15.18707623 -0.18061375 -15.18707623 -0.18061375 0 0 Z M-59.33984375 50.05859375 C-65.76701435 53.70390259 -72.22540372 57.29206466 -78.6875 60.875 C-87.40669515 65.7099817 -96.11672836 70.56051003 -104.8125 75.4375 C-113.46793529 80.29120073 -122.13561549 85.12225127 -130.8125 89.9375 C-142.701177 96.53814269 -154.58718187 103.14304782 -166.43359375 109.81933594 C-169.21129534 111.38061529 -171.99597435 112.92884928 -174.78125 114.4765625 C-191.56935772 123.61596499 -191.56935772 123.61596499 -201.3125 139.4375 C-201.83710099 142.75059266 -201.85862246 145.98643616 -201.8271637 149.33604431 C-201.83410922 150.29222973 -201.84105475 151.24841515 -201.84821075 152.23357588 C-201.86640969 155.41629446 -201.85623607 158.59826165 -201.84594727 161.78100586 C-201.8530093 164.07150324 -201.86175551 166.36199596 -201.87205505 168.65248108 C-201.89452637 174.8591099 -201.89161448 181.06548343 -201.88273358 187.2721374 C-201.87761785 192.45854402 -201.88492102 197.64490291 -201.89220566 202.83130461 C-201.91016817 215.76758182 -201.90380133 228.70370093 -201.88603585 241.63997079 C-201.87134133 252.85863368 -201.88596748 264.07702869 -201.91480602 275.29565709 C-201.94424264 286.83345496 -201.95465244 298.37109965 -201.94562382 309.90893656 C-201.94069887 316.37918278 -201.94288727 322.84922082 -201.96341133 329.31944084 C-201.9817893 335.40417709 -201.9757831 341.48841618 -201.95121193 347.57312584 C-201.94621096 349.80232242 -201.94967513 352.03155702 -201.96236038 354.26072311 C-201.97834484 357.31170679 -201.96328833 360.36106406 -201.94068909 363.41197205 C-201.95252482 364.28718646 -201.96436054 365.16240086 -201.97655493 366.06413692 C-201.86558477 373.47410827 -199.47787489 379.91498807 -194.48034388 385.47637123 C-189.29215354 390.41183185 -183.00911423 393.68775451 -176.75 397.0625 C-174.50619395 398.29499696 -172.26271113 399.52808251 -170.01953125 400.76171875 C-168.33077881 401.68476807 -168.33077881 401.68476807 -166.60791016 402.62646484 C-161.69080174 405.3287252 -156.8147667 408.10169425 -151.9375 410.875 C-140.25079941 417.49541036 -128.50805986 424.01381503 -116.76074219 430.52587891 C-101.40360741 439.03949865 -86.05736612 447.57184766 -70.74145508 456.15942383 C-60.71370667 461.77917914 -50.66595444 467.36248809 -40.61328125 472.9375 C-36.68828751 475.11495536 -32.76839151 477.30093015 -28.85546875 479.5 C-28.03618896 479.95922852 -27.21690918 480.41845703 -26.37280273 480.89160156 C-24.89805125 481.71882135 -23.42475114 482.54863757 -21.95336914 483.38183594 C-11.42094385 489.27947173 -1.53386923 492.56337228 10.4765625 489.1953125 C15.41648043 487.6388561 19.84153251 485.54466301 24.375 483.0625 C25.18259766 482.62897217 25.99019531 482.19544434 26.82226562 481.7487793 C35.128584 477.26112157 43.33343971 472.5902063 51.5390625 467.921875 C58.02285287 464.23776064 64.54018816 460.61536562 71.0625 457 C79.78175433 452.16512638 88.49176481 447.31455338 97.1875 442.4375 C105.88323652 437.56044587 114.59339319 432.71014105 123.3125 427.875 C132.55228579 422.74997075 141.76896446 417.58686679 150.95410156 412.36450195 C156.21444226 409.37933648 161.49646732 406.43816873 166.8046875 403.5390625 C168.62947032 402.5387792 170.45401869 401.53806915 172.27856445 400.53735352 C174.00483877 399.59400969 175.73574563 398.65915856 177.46679688 397.72460938 C188.10580845 391.88948623 198.90962184 385.68659046 202.6875 373.4375 C203.10199973 370.21111228 203.09727447 367.02236566 203.07518005 363.7727356 C203.08056559 362.81755346 203.08595113 361.86237133 203.09149987 360.87824428 C203.10577332 357.68708926 203.09867709 354.4963494 203.09155273 351.30517578 C203.09725663 349.01335314 203.10422097 346.72153334 203.11235046 344.42971802 C203.13029537 338.21067735 203.12911085 331.99177769 203.12340808 325.77271891 C203.12031796 320.57886961 203.12640677 315.38504747 203.13244683 310.19120204 C203.14729807 297.2363562 203.14367491 284.28159863 203.13158352 271.32675432 C203.1216538 260.08792656 203.13458848 248.84926349 203.15851771 237.61046113 C203.18292846 226.05805658 203.19211225 214.50574739 203.18586498 202.95331562 C203.18249492 196.47247859 203.18491392 189.99177761 203.20211601 183.51095963 C203.21758861 177.41564861 203.21362568 171.32065185 203.19481087 165.22535324 C203.19112582 162.99089874 203.19423095 160.75642094 203.20469666 158.52198792 C203.21791367 155.46637469 203.206352 152.41180068 203.18870544 149.35623169 C203.19831045 148.4767402 203.20791546 147.59724871 203.21781152 146.69110596 C203.13333546 139.55796077 201.27211571 133.53599228 196.65771484 128.00415039 C191.47857978 123.68109519 186.23543587 120.09878099 180.3125 116.875 C178.96889404 116.12536987 178.96889404 116.12536987 177.59814453 115.3605957 C175.65611394 114.27898566 173.71118437 113.20256744 171.76367188 112.13085938 C168.5914634 110.38463414 165.42778411 108.62372684 162.265625 106.859375 C156.57168096 103.68509747 150.87093852 100.52326187 145.16796875 97.36523438 C139.46388178 94.20590001 133.76292175 91.04094172 128.0625 87.875 C126.94407715 87.25391357 125.8256543 86.63282715 124.67333984 85.99291992 C116.13830072 81.25033803 107.61763686 76.4824486 99.10107422 71.70678711 C90.34184971 66.79756657 81.56485866 61.92072078 72.78442383 57.04956055 C66.18566265 53.38685602 59.59609707 49.70839934 53.015625 46.01293945 C48.91614624 43.71176283 44.81308662 41.41704473 40.70849609 39.125 C38.67406812 37.98858767 36.64055612 36.85053416 34.60791016 35.7109375 C31.63882058 34.04927165 28.66403249 32.39828808 25.6875 30.75 C24.80989014 30.25669189 23.93228027 29.76338379 23.02807617 29.25512695 C-6.94625726 12.7525992 -33.13568978 35.17330188 -59.33984375 50.05859375 Z " fill="#000000" transform="translate(255.3125,-0.4375)"/>
<path d="M0 0 C6.02547471 4.64984746 8.84118365 10.72534765 11.8203125 17.59765625 C13.11001953 16.89189453 13.11001953 16.89189453 14.42578125 16.171875 C29.97085118 7.88457323 46.66650041 4.56242715 63.9375 9.55078125 C76.44261931 14.09193569 84.80791506 19.55475173 90.8203125 31.59765625 C94.23633154 39.92855982 94.36693384 51.46432372 91.3828125 60.03515625 C84.87075759 73.08119218 72.9632729 79.38552625 60.94042969 86.69189453 C57.70958384 88.66528911 54.50107408 90.67115488 51.296875 92.6875 C40.14989859 99.70099813 40.14989859 99.70099813 36.25830078 102.08691406 C34.78508043 102.99982089 33.32529708 103.9356972 31.89404297 104.91308594 C27.14017794 108.02416136 23.29753699 108.74066111 17.8203125 107.59765625 C13.16302988 105.88304141 8.71425643 103.83058872 4.24603271 101.67660522 C1.15788681 100.18794391 -1.94758312 98.73708513 -5.05212402 97.28300476 C-6.67520741 96.52222279 -8.29735076 95.75943231 -9.9185791 94.9947052 C-17.42947131 91.45622939 -25.01076135 88.08953272 -32.61154175 84.74963379 C-46.95780517 78.44059171 -61.21201272 71.94099567 -75.4296875 65.34765625 C-76.31553528 64.93720062 -77.20138306 64.526745 -78.11407471 64.10385132 C-80.64199143 62.93170348 -83.16890295 61.75742364 -85.6953125 60.58203125 C-86.43649323 60.23789688 -87.17767395 59.89376251 -87.9413147 59.53919983 C-90.02495385 58.56725032 -92.10338217 57.58516581 -94.1796875 56.59765625 C-94.91046509 56.25375854 -95.64124268 55.90986084 -96.39416504 55.55554199 C-97.46120667 55.04126648 -97.46120667 55.04126648 -98.54980469 54.51660156 C-99.18601746 54.21248352 -99.82223022 53.90836548 -100.47772217 53.59503174 C-103.57448988 51.78028255 -104.76984275 49.84642894 -106.1796875 46.59765625 C-106.50638288 43.35362841 -106.44953567 40.61485749 -105.1796875 37.59765625 C-100.1043667 32.42866342 -93.66420997 29.4344889 -87.3046875 26.09765625 C-85.56218706 25.17135383 -83.81969237 24.24504026 -82.07763672 23.31790161 C-80.28946779 22.36715543 -78.49982147 21.41923678 -76.70996094 20.47167969 C-71.26822339 17.58296756 -65.84755185 14.65583706 -60.4296875 11.72265625 C-59.43396729 11.18527832 -58.43824707 10.64790039 -57.41235352 10.09423828 C-52.56322544 7.4687975 -47.75252812 4.79822297 -42.99902344 2.00341797 C-29.0009327 -6.20946962 -14.48716109 -9.32059289 0 0 Z M-29.87890625 20.19140625 C-30.59520706 20.57574829 -31.31150787 20.96009033 -32.04951477 21.3560791 C-34.33177865 22.58627292 -36.59912337 23.84151252 -38.8671875 25.09765625 C-40.37085639 25.91179921 -41.87540769 26.72431464 -43.38085938 27.53515625 C-47.66758994 29.85321432 -51.92677523 32.21825931 -56.1796875 34.59765625 C-56.81473206 34.94989258 -57.44977661 35.30212891 -58.10406494 35.66503906 C-59.82808507 36.62357473 -61.54515285 37.59458448 -63.26171875 38.56640625 C-64.21925049 39.10716797 -65.17678223 39.64792969 -66.16333008 40.20507812 C-66.82872803 40.66462891 -67.49412598 41.12417969 -68.1796875 41.59765625 C-68.1796875 42.25765625 -68.1796875 42.91765625 -68.1796875 43.59765625 C-64.63059133 45.33491359 -61.06376192 47.03215586 -57.4921875 48.72265625 C-56.48478516 49.21636719 -55.47738281 49.71007812 -54.43945312 50.21875 C-53.46298828 50.67636719 -52.48652344 51.13398438 -51.48046875 51.60546875 C-50.58497314 52.0348877 -49.68947754 52.46430664 -48.7668457 52.90673828 C-45.43317834 53.79701653 -44.19503722 53.19614419 -41.1796875 51.59765625 C-39.47165894 50.60924966 -37.78747309 49.57887114 -36.125 48.515625 C-34.70767578 47.61166992 -34.70767578 47.61166992 -33.26171875 46.68945312 C-32.28589844 46.06103516 -31.31007812 45.43261719 -30.3046875 44.78515625 C-29.33660156 44.16833984 -28.36851562 43.55152344 -27.37109375 42.91601562 C-17.78119214 37.32970901 -17.78119214 37.32970901 -10.1796875 29.59765625 C-9.61698636 25.2568189 -9.66109152 23.32054761 -12.2421875 19.72265625 C-18.5517485 15.15829298 -23.52485087 16.61638148 -29.87890625 20.19140625 Z M4.51757812 48.86962891 C0.56628759 51.40105852 -3.39524146 53.91631725 -7.35571289 56.43334961 C-11.63225761 59.15182445 -15.90611075 61.87451881 -20.1796875 64.59765625 C-16.51583069 67.68868003 -12.42346059 69.47780495 -8.08984375 71.42578125 C-7.30830429 71.7790448 -6.52676483 72.13230835 -5.72154236 72.49627686 C-4.07286062 73.23859552 -2.42289108 73.97805975 -0.77172852 74.71484375 C1.75149836 75.84482857 4.26524896 76.99429719 6.77929688 78.14453125 C8.38487067 78.8645001 9.99097355 79.58329045 11.59765625 80.30078125 C12.34675766 80.64651184 13.09585907 80.99224243 13.86766052 81.34844971 C17.87077958 83.10666854 20.53842497 84.25495649 24.8203125 82.59765625 C27.38488651 81.29156491 27.38488651 81.29156491 29.9609375 79.60546875 C30.9415918 78.98776611 31.92224609 78.37006348 32.93261719 77.73364258 C33.96805664 77.07001709 35.00349609 76.4063916 36.0703125 75.72265625 C37.66601074 74.71078247 37.66601074 74.71078247 39.29394531 73.6784668 C41.45091339 72.3083734 43.60555619 70.93461212 45.7578125 69.55712891 C48.51256997 67.79455848 51.27432862 66.04373322 54.0390625 64.296875 C55.55000079 63.3354547 57.06045433 62.37327194 58.5703125 61.41015625 C59.25383789 60.97783691 59.93736328 60.54551758 60.64160156 60.10009766 C67.12272109 56.00586816 67.12272109 56.00586816 70.8203125 49.59765625 C71.28250874 44.79081535 70.84947388 41.31158573 68.2109375 37.16796875 C63.11088859 31.40892476 54.19959416 29.81221382 46.8828125 29.34765625 C30.80131358 29.93980447 17.60894368 40.47210747 4.51757812 48.86962891 Z " fill="#000000" transform="translate(244.1796875,84.40234375)"/>
<path d="M0 0 C0.72316406 -0.00128906 1.44632813 -0.00257813 2.19140625 -0.00390625 C5.43942753 0.81515999 7.01797538 2.23859777 9.4375 4.5625 C10.64052213 7.17010671 11.57067082 9.55028284 12.43017578 12.26513672 C12.69043423 13.04057957 12.95069267 13.81602242 13.21883774 14.61496353 C14.08055798 17.19420447 14.91895541 19.78042933 15.7578125 22.3671875 C16.36663941 24.20340736 16.9771177 26.03908039 17.58914185 27.87423706 C18.88519313 31.76681186 20.17260548 35.66209847 21.45422363 39.55944824 C23.40101769 45.46831257 25.38763525 51.36320007 27.38574219 57.25488281 C30.38011457 66.08670973 33.35796745 74.92387012 36.3203392 83.76648331 C38.00397763 88.79118179 39.69187538 93.81436539 41.38916016 98.83447266 C43.07443588 103.81939007 44.74946012 108.80764072 46.41717911 113.7984581 C47.04431174 115.66951119 47.67502683 117.53936782 48.30953598 119.40793228 C49.18480656 121.98768428 50.04680704 124.57151591 50.90576172 127.15673828 C51.16428925 127.90872498 51.42281677 128.66071167 51.68917847 129.43548584 C53.16502497 133.93337385 53.83481985 137.76868262 53.4375 142.5625 C51.70772143 145.95799127 50.36958897 147.98309334 47.125 150 C42.48754322 150.97063049 38.88936583 150.49466149 34.88598633 147.92431641 C31.92668337 145.06976492 31.05469465 142.78717856 29.76171875 138.8984375 C29.54683304 138.26515533 29.33194733 137.63187317 29.11054993 136.97940063 C28.4333152 134.97020125 27.77933732 132.9542568 27.125 130.9375 C26.66744533 129.57503986 26.20847453 128.21305443 25.74804688 126.8515625 C22.4375 116.96531363 22.4375 116.96531363 22.4375 114.5625 C21.26840088 114.2224292 21.26840088 114.2224292 20.07568359 113.87548828 C15.25911901 112.13723272 10.79214574 109.86277683 6.2265625 107.5546875 C5.25842621 107.06920441 4.29028992 106.58372131 3.29281616 106.08352661 C0.21413915 104.53860983 -2.86170251 102.98814044 -5.9375 101.4375 C-8.02976304 100.38635068 -10.12220896 99.3355653 -12.21484375 98.28515625 C-17.33285551 95.71515018 -22.44855337 93.14058475 -27.5625 90.5625 C-27.86357666 91.50125977 -28.16465332 92.44001953 -28.47485352 93.40722656 C-29.51744682 96.43180027 -30.71384566 98.67644525 -32.5 101.3125 C-33.00402344 102.07046875 -33.50804688 102.8284375 -34.02734375 103.609375 C-35.5625 105.5625 -35.5625 105.5625 -38.5625 107.5625 C-43.91252483 107.99395362 -47.20985364 108.01901329 -51.5625 104.5625 C-54.42564073 100.26778891 -54.13806171 96.60423055 -53.5625 91.5625 C-52.61520165 88.38872445 -51.22761544 85.54996862 -49.71044922 82.61206055 C-49.30068344 81.77982468 -48.89091766 80.94758881 -48.46873474 80.09013367 C-47.12105863 77.36627035 -45.74516851 74.65786046 -44.3671875 71.94921875 C-43.41614639 70.04801987 -42.4664709 68.1461373 -41.51809692 66.24360657 C-39.53146503 62.26914095 -37.53123182 58.30192913 -35.52050781 54.33959961 C-32.94843714 49.26929518 -30.40688118 44.18442878 -27.87479973 39.09405804 C-25.91910375 35.16900802 -23.94956635 31.25103723 -21.97558975 27.33515358 C-21.03332689 25.4628096 -20.09485371 23.58855332 -19.16030502 21.71234703 C-17.85082331 19.08971782 -16.52348336 16.47692643 -15.19091797 13.8659668 C-14.81040787 13.09549011 -14.42989777 12.32501343 -14.03785706 11.53118896 C-11.09669561 5.84020506 -7.14912097 -0.21741513 0 0 Z M-3.5625 41.5625 C-5.4448873 45.34665716 -7.31420545 49.13690146 -9.17163086 52.93334961 C-9.80543554 54.22416873 -10.44279025 55.51325101 -11.08374023 56.80053711 C-12.0040076 58.65033866 -12.91136127 60.5059941 -13.81640625 62.36328125 C-14.36627197 63.47872314 -14.9161377 64.59416504 -15.48266602 65.7434082 C-16.91013052 68.57735657 -16.91013052 68.57735657 -15.5625 71.5625 C-13.01630091 73.21677962 -13.01630091 73.21677962 -9.84765625 74.734375 C-8.68685547 75.31574219 -7.52605469 75.89710938 -6.33007812 76.49609375 C-5.72236572 76.79370605 -5.11465332 77.09131836 -4.48852539 77.39794922 C-2.6291959 78.3104408 -0.78023638 79.24176945 1.06835938 80.17578125 C5.69486684 82.4989882 5.69486684 82.4989882 10.4375 84.5625 C11.4275 84.0675 11.4275 84.0675 12.4375 83.5625 C7.8175 69.7025 3.1975 55.8425 -1.5625 41.5625 C-2.2225 41.5625 -2.8825 41.5625 -3.5625 41.5625 Z " fill="#000000" transform="translate(149.5625,255.4375)"/>
<path d="M0 0 C2.27195828 1.69537727 4.33573128 3.46657255 6.38671875 5.421875 C7.23169922 6.20691406 7.23169922 6.20691406 8.09375 7.0078125 C14.46998928 13.62618745 18.01094269 23.05629761 18.5234375 32.1640625 C18.24997308 36.68013204 16.6853965 39.87345152 13.76171875 43.359375 C9.9978282 45.04322077 6.43247458 45.07208576 2.38671875 44.421875 C-1.68740882 42.08141873 -3.32352781 39.88640614 -4.61328125 35.421875 C-4.80277344 34.37773437 -4.80277344 34.37773437 -4.99609375 33.3125 C-6.01958138 27.76705793 -7.25006078 24.32092308 -11.61328125 20.421875 C-15.94679822 18.0897151 -19.92634681 16.94785733 -24.80078125 17.984375 C-31.96762839 20.34971783 -37.43030549 25.22337339 -41.61328125 31.421875 C-44.31120661 37.50593349 -45.08046745 42.49201355 -45.08203125 49.109375 C-45.08964478 50.01131592 -45.0972583 50.91325684 -45.10510254 51.8425293 C-45.11584759 53.73841602 -45.11877958 55.63436166 -45.11425781 57.53027344 C-45.11328377 60.41442174 -45.15500427 63.2959211 -45.19921875 66.1796875 C-45.2044256 68.03124451 -45.20711395 69.88281067 -45.20703125 71.734375 C-45.22342651 72.58668701 -45.23982178 73.43899902 -45.25671387 74.31713867 C-45.18565857 80.53616901 -43.48209894 84.55798229 -39.61328125 89.421875 C-35.72747254 93.07500056 -31.01921093 95.19152059 -25.69140625 95.55859375 C-19.60858887 95.1584084 -13.81555366 92.86427726 -9.61328125 88.421875 C-6.83407476 84.23363026 -5.45921507 80.17021491 -4.61328125 75.234375 C-3.88305334 70.99644519 -2.7778574 68.48755814 0.38671875 65.421875 C3.87231449 63.67907713 7.5835927 63.84943215 11.38671875 64.421875 C14.76374318 66.79297726 16.08191025 68.77250038 17.82421875 72.484375 C19.48399306 84.1027952 14.59643144 95.43890329 7.72265625 104.65234375 C-0.15611816 113.10989069 -10.62092823 117.67518458 -22 118.73828125 C-36.00216611 119.21580287 -46.97895366 114.55947574 -57.30078125 105.296875 C-66.03108247 96.1199072 -68.94551017 83.94350076 -68.87890625 71.65234375 C-68.8808197 70.85008865 -68.88273315 70.04783356 -68.88470459 69.2212677 C-68.88605537 67.5364246 -68.88243703 65.85157069 -68.87402344 64.16674805 C-68.86335064 61.62589401 -68.87393469 59.08575375 -68.88671875 56.54492188 C-68.90605754 37.83549736 -66.46917631 22.55732777 -52.9296875 8.60546875 C-38.23569746 -5.24603283 -18.47507656 -11.15684743 0 0 Z " fill="#000000" transform="translate(398.61328125,267.578125)"/>
<path d="M0 0 C2.58297781 2.18991597 4.48415844 3.96831688 6 7 C6.10266 9.0388391 6.13952357 11.08108984 6.14717102 13.12249756 C6.15432632 14.42918396 6.16148163 15.73587036 6.16885376 17.08215332 C6.17169418 18.53881812 6.17440589 19.99548318 6.17700195 21.45214844 C6.18326548 22.97963618 6.18991218 24.5071224 6.19691467 26.03460693 C6.21433553 30.19177827 6.22487957 34.34893809 6.2331202 38.50613689 C6.23826848 41.10293211 6.24434431 43.69972373 6.25063133 46.29651642 C6.26968717 54.4198209 6.28391699 62.54311627 6.2922433 70.66643882 C6.30201563 80.04598933 6.3283333 89.42530384 6.36874419 98.80477118 C6.39889935 106.05240574 6.41371163 113.29997262 6.41702431 120.5476687 C6.41937566 124.87728096 6.4283467 129.20664121 6.45348549 133.53618622 C6.47676062 137.61068557 6.48100186 141.6847669 6.47072411 145.75931549 C6.47022848 147.25326426 6.4765569 148.74723356 6.49028015 150.24111938 C6.50799244 152.28385893 6.4985098 154.32677989 6.48774719 156.36956787 C6.49013555 157.51183712 6.4925239 158.65410637 6.49498463 159.83098984 C5.88430942 163.74067879 4.43563106 165.91757617 2 169 C-1.0774905 170.91303463 -2.85809708 171.00253398 -6.5 170.9375 C-10.66166007 169.82276962 -12.27978168 168.28026327 -15 165 C-16.38522104 162.22955791 -16.13555222 159.97901946 -16.14717102 156.87750244 C-16.15432632 155.57081604 -16.16148163 154.26412964 -16.16885376 152.91784668 C-16.17169418 151.46118188 -16.17440589 150.00451682 -16.17700195 148.54785156 C-16.18326548 147.02036382 -16.18991218 145.4928776 -16.19691467 143.96539307 C-16.21433553 139.80822173 -16.22487957 135.65106191 -16.2331202 131.49386311 C-16.23826848 128.89706789 -16.24434431 126.30027627 -16.25063133 123.70348358 C-16.26968717 115.5801791 -16.28391699 107.45688373 -16.2922433 99.33356118 C-16.30201563 89.95401067 -16.3283333 80.57469616 -16.36874419 71.19522882 C-16.39889935 63.94759426 -16.41371163 56.70002738 -16.41702431 49.4523313 C-16.41937566 45.12271904 -16.4283467 40.79335879 -16.45348549 36.46381378 C-16.47676062 32.38931443 -16.48100186 28.3152331 -16.47072411 24.24068451 C-16.47022848 22.74673574 -16.4765569 21.25276644 -16.49028015 19.75888062 C-16.50799244 17.71614107 -16.4985098 15.67322011 -16.48774719 13.63043213 C-16.49013555 12.48816288 -16.4925239 11.34589363 -16.49498463 10.16901016 C-15.88430942 6.25932121 -14.43563106 4.08242383 -12 1 C-7.90407986 -1.54611252 -4.58302563 -1.22759615 0 0 Z " fill="#000000" transform="translate(261,299)"/>
<path d="M0 0 C3.63218181 2.55025531 5.2270072 4.69565063 6 9 C6 13.29107948 5.70361469 14.75566237 3 18 C-0.25457585 20.79516807 -3.45539167 22.91454492 -7.28860474 24.82804871 C-8.33449768 25.35377975 -9.38039063 25.8795108 -10.45797729 26.4211731 C-11.59477936 26.98496674 -12.73158142 27.54876038 -13.90283203 28.12963867 C-15.12061625 28.73892658 -16.33813885 29.34873764 -17.55541992 29.95903015 C-20.85003478 31.60889665 -24.14832031 33.25129615 -27.44738245 34.89224792 C-30.90200521 36.61202411 -34.35337181 38.33831123 -37.80514526 40.063797 C-43.59840251 42.95858171 -49.39389231 45.84885378 -55.19091797 48.73608398 C-62.63344774 52.44289318 -70.07224323 56.15713273 -77.5098896 59.87372875 C-83.90616174 63.06987555 -90.30413459 66.26261263 -96.70238256 69.4548018 C-98.75886882 70.48099586 -100.81512052 71.50765872 -102.87134171 72.53438377 C-106.09937001 74.14595166 -109.32845109 75.75539085 -112.55836487 77.36317635 C-114.31058859 78.2359472 -116.06184742 79.11065436 -117.81307983 79.9854126 C-118.85333313 80.50268417 -119.89358643 81.01995575 -120.96536255 81.55290222 C-121.87052172 82.00399447 -122.77568089 82.45508673 -123.70826912 82.91984844 C-128.48469283 85.17109947 -132.78679407 85.68594815 -138 85 C-140.87029869 83.20606332 -142.49131638 82.01736724 -144 79 C-144.2734375 77.046875 -144.2734375 77.046875 -144.375 74.75 C-144.44847656 73.62851563 -144.44847656 73.62851563 -144.5234375 72.484375 C-143.7347663 68.74112962 -141.78478734 66.49055177 -139 64 C-135.05431376 61.52817475 -130.90834794 59.50691796 -126.72998047 57.4597168 C-125.47244379 56.83111738 -124.2155215 56.2012876 -122.95916748 55.57032776 C-119.56060902 53.86791954 -116.15368551 52.18292435 -112.74490118 50.50110602 C-109.1753012 48.73638701 -105.61351837 46.95602686 -102.05081177 45.17744446 C-96.07178139 42.19527573 -90.08778189 39.22329743 -84.10009766 36.25854492 C-75.65305787 32.07604301 -67.21520153 27.87527728 -58.77908492 23.67079675 C-52.22683632 20.40598734 -45.67228607 17.14580147 -39.1171875 13.88671875 C-38.4140434 13.53709949 -37.71089931 13.18748024 -36.98644781 12.82726645 C-32.94808489 10.81974796 -28.9085456 8.81462998 -24.86724091 6.81303978 C-23.05779126 5.91638333 -21.24926577 5.01786271 -19.44076538 4.11929321 C-18.36685547 3.58808365 -17.29294556 3.05687408 -16.18649292 2.50956726 C-15.25183638 2.04632396 -14.31717983 1.58308065 -13.35420036 1.10579967 C-8.70656345 -1.07725809 -4.94101863 -1.37732098 0 0 Z " fill="#000000" transform="translate(432,171)"/>
<path d="M0 0 C1.25364614 0.62193289 2.50779563 1.24285204 3.7624054 1.86283875 C7.15214842 3.54196122 10.53415474 5.23612827 13.91456008 6.93395591 C16.74276538 8.35264714 19.57472409 9.76375404 22.40671712 11.17486507 C29.08905267 14.50459684 35.76523115 17.84643601 42.4375 21.19628906 C49.31095772 24.64692525 56.19364801 28.07857582 63.0813114 31.50075692 C69.00596056 34.44517597 74.92508431 37.40048566 80.83984452 40.36471969 C84.36758803 42.13260684 87.89716404 43.89653746 91.43193626 45.65033531 C94.75522096 47.29988009 98.07135467 48.96300376 101.38256645 50.63664436 C103.17200986 51.53699298 104.96833943 52.42361473 106.76486206 53.30975342 C112.53348426 56.24327024 116.86200051 58.62013582 120.42114258 64.10668945 C121.24203191 67.21179257 121.06306842 69.96645763 120.42114258 73.10668945 C118.6272059 75.97698814 117.43850982 77.59800583 114.42114258 79.10668945 C106.65167004 79.8065518 101.78111893 77.91495503 94.93725586 74.38525391 C93.94173265 73.89028821 92.94620945 73.39532251 91.92051888 72.88535786 C89.81103217 71.83518796 87.70520631 70.77763612 85.60288239 69.71319962 C82.51884676 68.15602182 79.42292764 66.62641735 76.32000732 65.10726929 C63.96184217 59.05584218 51.64652861 52.91699952 39.32913017 46.78309155 C32.54423465 43.40452937 25.75476548 40.03552268 18.9592427 36.67838496 C13.54391619 34.00198326 8.13632814 31.31029601 2.7312355 28.61327553 C0.4490918 27.4773974 -1.83544943 26.34632267 -4.12244034 25.22023582 C-7.30356737 23.65270267 -10.47546617 22.06783479 -13.64575195 20.47851562 C-14.58281982 20.02177963 -15.5198877 19.56504364 -16.48535156 19.09446716 C-21.76873128 16.41899736 -25.24222377 14.04428235 -28.57885742 9.10668945 C-29.89054307 4.86300061 -29.94093407 2.20345862 -27.95385742 -1.70581055 C-20.42996193 -11.80367029 -8.94294817 -4.51222546 0 0 Z " fill="#000000" transform="translate(103.578857421875,176.893310546875)"/>
</svg>
