<?xml version="1.0" encoding="UTF-8"?>
<svg version="1.1" xmlns="http://www.w3.org/2000/svg" width="512" height="512">
<path d="M0 0 C1.03834488 -0.00700928 2.07668976 -0.01401855 3.14649963 -0.02124023 C6.56693553 -0.03879356 9.9865386 -0.0272037 13.40698242 -0.01367188 C15.79440977 -0.01636815 18.18183604 -0.0202517 20.56925964 -0.02526855 C25.5700426 -0.03116055 30.57053942 -0.02261215 35.57128906 -0.00390625 C41.96341484 0.0188455 48.35486736 0.00578157 54.74696827 -0.01819611 C59.67739373 -0.03269357 64.60766128 -0.02802928 69.53809166 -0.01768494 C71.89387785 -0.01502665 74.24967862 -0.01825562 76.60544777 -0.02760315 C79.90792054 -0.03782928 83.20932496 -0.02218029 86.51171875 0 C87.95611328 -0.01214539 87.95611328 -0.01214539 89.4296875 -0.02453613 C99.49943077 0.0999539 108.06055844 3.6537241 115.44995117 10.51757812 C124.36514219 19.90742051 126.07192068 31.81892808 127.54406738 44.18771362 C131.60303375 77.85587825 140.23823995 109.86765255 153.28588867 141.18945312 C156.40418492 148.78167961 159.0266361 155.53742796 158.94995117 163.83007812 C158.94423096 164.56282959 158.93851074 165.29558105 158.93261719 166.05053711 C158.62500904 175.52217504 155.20749838 183.83691111 148.53942871 190.65414429 C142.07587287 196.41846022 133.61898848 200.08310374 125.91870117 203.91601562 C124.96096802 204.39583893 124.00323486 204.87566223 123.01647949 205.37002563 C121.01416515 206.37185758 119.01085755 207.37170667 117.0065918 208.36962891 C113.92737797 209.90382506 110.85258212 211.44662912 107.77807617 212.99023438 C105.82520784 213.96600865 103.8720918 214.94128736 101.91870117 215.91601562 C100.53757141 216.60961685 100.53757141 216.60961685 99.12854004 217.31723022 C98.28005493 217.73832062 97.43156982 218.15941101 96.55737305 218.59326172 C95.43679504 219.15235733 95.43679504 219.15235733 94.2935791 219.7227478 C92.44995117 220.51757812 92.44995117 220.51757812 90.44995117 220.51757812 C107.77493875 253.70552901 130.84767067 286.9008526 157.87573242 312.94726562 C159.66307562 314.73017372 161.30262765 316.60479188 162.94995117 318.51757812 C167.96226592 324.31132279 173.35916494 329.51445909 179.16088867 334.50976562 C181.38551147 336.46105593 183.56140457 338.45898329 185.73022461 340.47192383 C191.77474567 346.07630051 197.98254011 351.40089884 204.44995117 356.51757812 C205.43350586 357.29617188 206.41706055 358.07476562 207.43041992 358.87695312 C236.56262766 382.62914013 236.56262766 382.62914013 269.44995117 399.51757812 C269.677229 398.74140137 269.90450684 397.96522461 270.13867188 397.16552734 C271.88463812 392.3082889 274.14050994 387.77155098 276.43041992 383.15039062 C276.92149734 382.15683563 277.41257477 381.16328064 277.91853333 380.13961792 C278.95775825 378.04231853 279.99928836 375.94616 281.04296875 373.85107422 C282.62577743 370.66606859 284.19129839 367.47293878 285.7565918 364.27929688 C286.77180758 362.23580104 287.78805082 360.19281527 288.80541992 358.15039062 C289.26611374 357.20430939 289.72680756 356.25822815 290.20146179 355.28347778 C294.10076533 347.53647984 298.79326827 340.48540298 306.51245117 336.14257812 C307.70547852 335.45035156 307.70547852 335.45035156 308.92260742 334.74414062 C318.0796618 330.30006787 328.49961152 329.91907013 338.27416992 332.54492188 C341.6021627 333.80030891 344.87060652 335.12952001 348.13549805 336.53759766 C376.9866156 348.75367211 407.614324 357.79142291 438.75073242 361.59960938 C439.44292877 361.68457672 440.13512512 361.76954407 440.84829712 361.85708618 C444.17931171 362.25895121 447.50844344 362.62946264 450.84741211 362.96191406 C463.29711529 364.3304867 474.01432932 367.87192855 482.44995117 377.51757812 C488.09134273 385.67547279 489.74968694 393.20790215 489.75634766 402.98583984 C489.76467117 404.02725128 489.77299469 405.06866272 489.78157043 406.14163208 C489.80562344 409.57688152 489.8144364 413.01194096 489.82104492 416.44726562 C489.83001396 418.84091243 489.83913586 421.23455868 489.84840393 423.62820435 C489.86488311 428.64326336 489.87259226 433.65825569 489.87548828 438.67333984 C489.88087453 445.09151056 489.9185702 451.50905266 489.96423244 457.92704582 C489.99400843 462.87023191 490.00121195 467.81326661 490.00221443 472.75653458 C490.00641467 475.12237557 490.01884097 477.48821709 490.03973198 479.85396957 C490.06665937 483.16662327 490.06181605 486.47781921 490.04931641 489.79052734 C490.0641507 490.76221863 490.07898499 491.73390991 490.0942688 492.73504639 C490.02546754 499.15495949 488.70121004 503.60506554 484.44995117 508.51757812 C479.98079842 512.31634448 475.26354296 513.10471503 469.54370117 513.01367188 C468.42011703 513.01782608 468.42011703 513.01782608 467.27383423 513.02206421 C464.83181891 513.02272339 462.39168216 512.99114773 459.94995117 512.95507812 C459.10704529 512.94826019 458.2641394 512.94144226 457.39569092 512.93441772 C390.87547031 512.37959862 324.88616164 495.80265392 264.44995117 468.51757812 C263.01981689 467.8758667 263.01981689 467.8758667 261.56079102 467.22119141 C224.38323051 450.42165206 188.18820545 427.80199107 157.34838867 401.01757812 C154.63781292 398.67961521 151.87298326 396.4369395 149.07495117 394.20507812 C137.52665314 384.75797472 127.00608325 374.16639123 116.44995117 363.64257812 C115.95531372 363.15061951 115.46067627 362.65866089 114.9510498 362.15179443 C109.23039906 356.45467666 103.67243735 350.67839953 98.44995117 344.51757812 C97.57292746 343.50795903 96.69536023 342.4988117 95.81713867 341.49023438 C53.78345479 292.40701417 21.84773088 235.78205162 1.44995117 174.51757812 C1.090625 173.44088867 0.73129883 172.36419922 0.36108398 171.25488281 C-14.32153003 126.71987571 -22.49649902 79.46679148 -23.02081299 32.56341553 C-23.04008599 30.88513517 -23.06641112 29.20691887 -23.10028076 27.52886963 C-23.37884107 11.83110713 -23.37884107 11.83110713 -19.30981445 6.04296875 C-13.06860697 0.63299867 -8.01772421 -0.06699561 0 0 Z " fill="#F44235" transform="translate(22.550048828125,-0.517578125)"/>
</svg>
