<?xml version="1.0" encoding="UTF-8"?>
<svg version="1.1" xmlns="http://www.w3.org/2000/svg" width="512" height="512">
<path d="M0 0 C1.82729646 -0.00551503 1.82729646 -0.00551503 3.691508 -0.01114148 C7.06561721 -0.02024202 10.43967789 -0.02487224 13.81379473 -0.02753079 C17.45618287 -0.0314451 21.09855708 -0.04102278 24.74093628 -0.04974365 C33.53503242 -0.06947864 42.32912966 -0.07957154 51.12324241 -0.08847144 C55.27070187 -0.09286012 59.41816006 -0.09822551 63.56561852 -0.10346031 C77.36411556 -0.12047136 91.16261183 -0.13496295 104.96111774 -0.14220905 C108.53952345 -0.14411877 112.11792916 -0.14603912 115.69633484 -0.147995 C117.03033306 -0.14872061 117.03033306 -0.14872061 118.39128073 -0.14946087 C132.78040901 -0.15775155 147.1694539 -0.18307272 161.55854581 -0.21557567 C176.35181184 -0.2487174 191.1450356 -0.26666432 205.93833894 -0.26985329 C214.23591579 -0.27201206 222.53337112 -0.28066725 230.83091164 -0.30631447 C237.90138184 -0.32811908 244.971701 -0.33602435 252.04220102 -0.32634769 C255.64336576 -0.32183072 259.2442195 -0.32353506 262.84534073 -0.34310913 C289.85469925 -0.48186834 312.23395291 3.36882396 334.00370789 20.14717102 C334.75136414 20.7220929 335.49902039 21.29701477 336.26933289 21.88935852 C354.0122696 36.48886157 364.18421642 57.90506306 368.00370789 80.14717102 C368.37745323 84.4746161 368.41479267 88.76374583 368.39138794 93.10549927 C368.39946625 94.94304882 368.39946625 94.94304882 368.40770775 96.81772059 C368.41942974 100.17391666 368.4179686 103.52960828 368.41054094 106.88578284 C368.40577144 110.52259203 368.41835227 114.15935024 368.42855835 117.79614258 C368.44567869 124.90402326 368.44660044 132.01181527 368.44134545 139.1197112 C368.43728957 144.90251641 368.43876406 150.6852956 368.4440937 156.46809959 C368.44484213 157.29390282 368.44559055 158.11970604 368.44636165 158.97053361 C368.44789327 160.6486347 368.44943162 162.32673579 368.45097662 164.00483688 C368.46467737 179.71142507 368.45928123 195.41796333 368.44779141 211.12455036 C368.43786325 225.4614476 368.45079679 239.79821569 368.4747256 254.13509301 C368.4991687 268.89246366 368.50871159 283.64977429 368.50207287 298.40716475 C368.49859199 306.67778033 368.50073747 314.9482967 368.5183239 323.21889687 C368.53311134 330.25991188 368.53359662 337.30075781 368.51625299 344.34176973 C368.50779371 347.92677565 368.50546726 351.51148039 368.52090454 355.09646988 C368.62878961 382.05559707 364.74956599 404.41957018 348.00370789 426.14717102 C347.42878601 426.89482727 346.85386414 427.64248352 346.26152039 428.41279602 C331.66201734 446.15573274 310.24581584 456.32767956 288.00370789 460.14717102 C283.6762628 460.52091637 279.38713307 460.5582558 275.04537964 460.53485107 C273.20783008 460.54292938 273.20783008 460.54292938 271.33315831 460.55117089 C267.97696224 460.56289287 264.62127062 460.56143174 261.26509607 460.55400407 C257.62828688 460.54923457 253.99152866 460.5618154 250.35473633 460.57202148 C243.24685565 460.58914182 236.13906364 460.59006357 229.03116771 460.58480858 C223.24836249 460.5807527 217.4655833 460.58222719 211.68277931 460.58755684 C210.85697609 460.58830526 210.03117286 460.58905368 209.1803453 460.58982478 C207.5022442 460.5913564 205.82414311 460.59289475 204.14604203 460.59443975 C188.43945384 460.60814051 172.73291557 460.60274436 157.02632854 460.59125454 C142.68943131 460.58132638 128.35266321 460.59425992 114.0157859 460.61818873 C99.25841525 460.64263184 84.50110462 460.65217473 69.74371415 460.64553601 C61.47309857 460.64205512 53.2025822 460.6442006 44.93198204 460.66178703 C37.89096703 460.67657447 30.8501211 460.67705976 23.80910917 460.65971612 C20.22410325 460.65125684 16.63939852 460.64893039 13.05440903 460.66436768 C-13.90471816 460.77225275 -36.26869127 456.89302913 -57.99629211 440.14717102 C-58.74394836 439.57224915 -59.49160461 438.99732727 -60.26191711 438.40498352 C-77.60347629 424.13574782 -88.01986723 402.91629765 -91.99629211 381.14717102 C-92.37959729 376.83986338 -92.41118595 372.56906991 -92.39070129 368.24662781 C-92.3967924 367.01569322 -92.4028835 365.78475864 -92.40915918 364.516523 C-92.42281541 361.13913363 -92.42327487 357.76223615 -92.41778421 354.38485694 C-92.41509344 350.72685446 -92.42968404 347.06891201 -92.44187927 343.41093445 C-92.46285112 336.25880407 -92.46747883 329.1067549 -92.46569139 321.9545974 C-92.46437936 316.13459922 -92.46821032 310.31462618 -92.47561646 304.49463272 C-92.47771586 302.81268998 -92.47981346 301.13074724 -92.48190928 299.4488045 C-92.4829528 298.61141551 -92.48399633 297.77402652 -92.48507148 296.91126211 C-92.5039413 281.10161258 -92.50293394 265.29200952 -92.49610215 249.4823534 C-92.49053161 235.05618891 -92.5113371 220.63020227 -92.54446262 206.20407932 C-92.57829392 191.3540678 -92.59335607 176.50414125 -92.58874559 161.65409052 C-92.5865101 153.33194868 -92.59160818 145.00997109 -92.61663818 136.6878624 C-92.63777397 129.60074336 -92.64112303 122.5138786 -92.62233859 115.42674868 C-92.61325481 111.81915955 -92.61180722 108.21204293 -92.63269424 104.60449219 C-92.78070772 77.18780225 -88.48007368 54.88569698 -70.99629211 33.14717102 C-70.22092102 32.12623352 -70.22092102 32.12623352 -69.42988586 31.08467102 C-52.85292189 10.47771831 -25.81530971 -0.00418145 0 0 Z " fill="#41464A" transform="translate(117.99629211425781,25.852828979492188)"/>
<path d="M0 0 C13.57782275 -0.39522949 27.15426167 -0.69660595 40.73668098 -0.88080692 C47.04511863 -0.96925498 53.34960094 -1.08902956 59.65576172 -1.2824707 C65.75103931 -1.46825624 71.84253412 -1.56903892 77.94042587 -1.61291313 C80.2572269 -1.64414179 82.57383807 -1.70513563 84.88901138 -1.79741096 C102.49874715 -2.47086461 102.49874715 -2.47086461 108.31954193 1.63692093 C112.46140323 5.57246935 115.63250847 10.03317596 118.63967514 14.86866951 C120.69965849 18.09621129 123.09286453 21.0284669 125.5 24 C126.38732941 25.13392249 127.27296379 26.26917518 128.15625 27.40625 C131.36846008 31.49451737 134.68373393 35.49603517 138 39.5 C142.71303848 45.19144463 147.34453001 50.93324647 151.88671875 56.76171875 C155.36853934 61.22089248 158.92245524 65.61736343 162.5 70 C167.10278067 75.63927176 171.63584881 81.32638648 176.1171875 87.0625 C179.56425931 91.46709176 183.09650031 95.79593232 186.65234375 100.11328125 C191.17961715 105.68009496 195.58347272 111.34519404 200 117 C203.65645125 113.48042126 206.85195625 109.78208649 209.9375 105.75 C214.19759532 100.25253259 218.560715 94.85368318 223 89.5 C227.71338964 83.80885308 232.34453808 78.06674317 236.88671875 72.23828125 C240.36853977 67.77910696 243.92248072 63.38265769 247.5 59 C251.54982067 54.03767756 255.55805194 49.0484598 259.5 44 C263.97685486 38.26648413 268.54819433 32.61533907 273.14868164 26.98071289 C277.23778145 21.96313182 281.25752102 16.89540601 285.22265625 11.77929688 C286.048999 10.71778426 286.89058201 9.66795759 287.74707031 8.63061523 C289.05940964 7.00680027 289.05940964 7.00680027 290.07324219 5.05883789 C291.54820088 2.72033753 292.63844658 1.47362834 295 0 C300.48277778 -0.87162108 305.84477518 -0.66007685 311.375 -0.4375 C312.88925114 -0.40235642 314.40358038 -0.37042271 315.91796875 -0.34179688 C319.61361173 -0.26497324 323.30630774 -0.14435921 327 0 C323.36467247 4.87526602 319.69880849 9.72119469 315.9375 14.5 C315.4734375 15.09039062 315.009375 15.68078125 314.53125 16.2890625 C310.35472745 21.58449427 306.09997179 26.81467229 301.83544922 32.03930664 C298.36207799 36.30170707 294.94226901 40.60062826 291.5625 44.9375 C286.8799785 50.94214522 282.05012135 56.81660123 277.19384766 62.68115234 C273.08870595 67.64935149 269.07466183 72.67853128 265.11328125 77.76171875 C261.63146023 82.22089304 258.07751928 86.61734231 254.5 91 C249.99595463 96.51889262 245.55761724 102.08205817 241.17504883 107.69775391 C237.05327216 112.96517619 232.83472075 118.15173365 228.58984375 123.3203125 C227.56775138 124.56953651 226.55245694 125.82435697 225.54443359 127.08496094 C224.45560269 128.43506995 223.34131603 129.7648422 222.20947266 131.07910156 C218.87231178 134.82101057 218.87231178 134.82101057 218.22265625 139.50390625 C220.8031583 143.12795198 223.55428399 146.5502653 226.4375 149.9375 C227.71743368 151.46506768 228.99606448 152.99372791 230.2734375 154.5234375 C230.90733398 155.28108398 231.54123047 156.03873047 232.19433594 156.81933594 C234.70866689 159.85584271 237.14323062 162.95007677 239.5625 166.0625 C245.5951736 173.80071136 251.79569506 181.39918093 258 189 C264.68097011 197.18477581 271.3336976 205.3840373 277.83642578 213.71142578 C281.33793972 218.18480915 284.90825692 222.59885003 288.5 227 C292.5497569 231.96237817 296.55799493 236.951581 300.5 242 C305.58597845 248.51229417 310.79096139 254.9236637 316.01171875 261.328125 C318.98416829 264.97541594 321.92299568 268.64864301 324.85546875 272.328125 C327.09870916 275.1229819 329.36064636 277.90193625 331.625 280.6796875 C336.7493567 286.966514 341.82377116 293.28525363 346.81103516 299.68139648 C351.10175276 305.16851887 355.50713248 310.5607595 359.9375 315.93554688 C364 320.89258763 364 320.89258763 364 322 C350.42217725 322.39522949 336.84573833 322.69660595 323.26331902 322.88080692 C316.95488137 322.96925498 310.65039906 323.08902956 304.34423828 323.2824707 C298.24896069 323.46825624 292.15746588 323.56903892 286.05957413 323.61291313 C283.7427731 323.64414179 281.42616193 323.70513563 279.11098862 323.79741096 C261.50125285 324.47086461 261.50125285 324.47086461 255.68045807 320.36307907 C251.53859677 316.42753065 248.36749153 311.96682404 245.36032486 307.13133049 C243.30034151 303.90378871 240.90713547 300.9715331 238.5 298 C237.61267059 296.86607751 236.72703621 295.73082482 235.84375 294.59375 C232.63153992 290.50548263 229.31626607 286.50396483 226 282.5 C221.28696152 276.80855537 216.65546999 271.06675353 212.11328125 265.23828125 C208.63146066 260.77910752 205.07754476 256.38263657 201.5 252 C196.89721933 246.36072824 192.36415119 240.67361352 187.8828125 234.9375 C184.43574069 230.53290824 180.90349969 226.20406768 177.34765625 221.88671875 C172.82038285 216.31990504 168.41652728 210.65480596 164 205 C159.94568733 208.89722675 156.39370224 213.05500082 152.875 217.4375 C152.30587891 218.14197266 151.73675781 218.84644531 151.15039062 219.57226562 C147.11156963 224.58364552 143.12704983 229.63616506 139.16552734 234.70874023 C135.1228375 239.87407527 130.98302256 244.95742306 126.8359375 250.0390625 C123.34469917 254.32451618 119.90181112 258.64329453 116.5 263 C112.01736805 268.74091461 107.43955976 274.39887777 102.83374023 280.04125977 C99.36106493 284.3031094 95.94174261 288.60131478 92.5625 292.9375 C86.70936042 300.44306024 80.64407362 307.77126623 74.56469727 315.09399414 C72.88236608 317.06711205 72.88236608 317.06711205 71.27026367 319.70166016 C69 322 69 322 65.60839844 322.56762695 C63.62888184 322.52835083 63.62888184 322.52835083 61.609375 322.48828125 C60.90476135 322.48120651 60.20014771 322.47413177 59.47418213 322.46684265 C57.23169109 322.43893357 54.99173129 322.37621287 52.75 322.3125 C51.22659866 322.28741211 49.70315803 322.26459978 48.1796875 322.24414062 C44.45230751 322.18912213 40.72640094 322.10287804 37 322 C40.63532595 317.1247361 44.3011268 312.2787528 48.0625 307.5 C48.52438721 306.91250977 48.98627441 306.32501953 49.4621582 305.71972656 C54.24852371 299.65216623 59.12865331 293.66165219 64.01171875 287.671875 C66.35721533 284.79387546 68.68601547 281.90344164 71 279 C73.85222552 275.42120755 76.73352476 271.86737282 79.625 268.3203125 C84.75727452 262.023772 89.83585467 255.69257157 94.83520508 249.29003906 C98.87801787 244.12539864 103.01727279 239.04221504 107.1640625 233.9609375 C110.65530179 229.67548263 114.09814072 225.35666894 117.5 221 C121.50636002 215.87009329 125.57731085 210.79709225 129.6875 205.75 C130.23639893 205.07477295 130.78529785 204.3995459 131.35083008 203.70385742 C133.73392821 200.77416066 136.12342267 197.85086427 138.53125 194.94140625 C139.2428125 194.07386719 139.954375 193.20632813 140.6875 192.3125 C141.28949219 191.58675781 141.89148438 190.86101562 142.51171875 190.11328125 C144.83567571 186.81803241 144.83567571 186.81803241 146 183 C144.57956123 180.57987604 143.25656318 178.77631927 141.4375 176.6875 C140.93734375 176.08357422 140.4371875 175.47964844 139.921875 174.85742188 C138.84809971 173.56226329 137.76692791 172.27320838 136.67919922 170.98974609 C134.45991367 168.36003146 132.2951336 165.688111 130.13012695 163.01367188 C128.49258943 160.99084583 126.84788237 158.9739885 125.203125 156.95703125 C122.17704646 153.23269692 119.20487621 149.4684482 116.25 145.6875 C112.37306673 140.72850347 108.43576991 135.82702555 104.4375 130.96484375 C96.91595501 121.81604143 89.45398396 112.6248003 82.16455078 103.28979492 C78.6626816 98.81602741 75.09207304 94.40155429 71.5 90 C67.4502431 85.03762183 63.44200507 80.048419 59.5 75 C54.41402155 68.48770583 49.20903861 62.0763363 43.98828125 55.671875 C41.01583171 52.02458406 38.07700432 48.35135699 35.14453125 44.671875 C32.90096476 41.87661183 30.63869084 39.09725937 28.37402344 36.3190918 C23.15519307 29.91643005 17.98877226 23.47962953 12.90771484 16.96704102 C9.21579276 12.24441745 5.42042136 7.61644244 1.58203125 3.01171875 C0 1 0 1 0 0 Z " fill="#EEEEEF" transform="translate(74,95)"/>
<path d="M0 0 C38.65047318 -2.94421432 38.65047318 -2.94421432 46.453125 3.29296875 C49.56546376 6.73336921 51.78244056 10.59445687 53.82714844 14.74316406 C55.61967586 18.19239875 58.0234866 21.02485974 60.5 24 C61.38850598 25.1330008 62.27388748 26.26845825 63.15625 27.40625 C66.36846008 31.49451737 69.68373393 35.49603517 73 39.5 C77.71303848 45.19144463 82.34453001 50.93324647 86.88671875 56.76171875 C90.36853977 61.22089304 93.92248072 65.61734231 97.5 70 C101.54982454 74.96232718 105.55785415 79.95169119 109.5 85 C115.55913545 92.75436897 121.7773288 100.37668065 128 108 C134.68097011 116.18477581 141.3336976 124.3840373 147.83642578 132.71142578 C151.33793972 137.18480915 154.90825692 141.59885003 158.5 146 C162.5497569 150.96237817 166.55799493 155.951581 170.5 161 C175.58597845 167.51229417 180.79096139 173.9236637 186.01171875 180.328125 C188.98416829 183.97541594 191.92299568 187.64864301 194.85546875 191.328125 C197.09870916 194.1229819 199.36064636 196.90193625 201.625 199.6796875 C206.75727452 205.976228 211.83585467 212.30742843 216.83520508 218.70996094 C220.33722973 223.18375159 223.90785432 227.59835671 227.5 232 C232.00002632 237.51411676 236.43899158 243.06905675 240.81176758 248.68457031 C243.35835865 251.9444308 245.94512078 255.1655493 248.57421875 258.359375 C249.47527344 259.45572266 249.47527344 259.45572266 250.39453125 260.57421875 C251.57127553 262.00220691 252.75214001 263.42681179 253.9375 264.84765625 C254.46730469 265.49089844 254.99710938 266.13414062 255.54296875 266.796875 C256.01758545 267.36760742 256.49220215 267.93833984 256.98120117 268.52636719 C258 270 258 270 258 272 C219.34952682 274.94421432 219.34952682 274.94421432 211.546875 268.70703125 C208.43453624 265.26663079 206.21755944 261.40554313 204.17285156 257.25683594 C202.38032414 253.80760125 199.9765134 250.97514026 197.5 248 C196.61149402 246.8669992 195.72611252 245.73154175 194.84375 244.59375 C191.63153992 240.50548263 188.31626607 236.50396483 185 232.5 C180.28696152 226.80855537 175.65546999 221.06675353 171.11328125 215.23828125 C167.63146023 210.77910696 164.07751928 206.38265769 160.5 202 C156.45017546 197.03767282 152.44214585 192.04830881 148.5 187 C142.44086455 179.24563103 136.2226712 171.62331935 130 164 C123.31902989 155.81522419 116.6663024 147.6159627 110.16357422 139.28857422 C106.66206028 134.81519085 103.09174308 130.40114997 99.5 126 C95.4502431 121.03762183 91.44200507 116.048419 87.5 111 C82.41402155 104.48770583 77.20903861 98.0763363 71.98828125 91.671875 C69.01583171 88.02458406 66.07700432 84.35135699 63.14453125 80.671875 C60.90129084 77.8770181 58.63935364 75.09806375 56.375 72.3203125 C51.24272548 66.023772 46.16414533 59.69257157 41.16479492 53.29003906 C37.66277027 48.81624841 34.09214568 44.40164329 30.5 40 C25.99997368 34.48588324 21.56100842 28.93094325 17.18823242 23.31542969 C14.64164135 20.0555692 12.05487922 16.8344507 9.42578125 13.640625 C8.82507813 12.90972656 8.224375 12.17882812 7.60546875 11.42578125 C6.42872447 9.99779309 5.24785999 8.57318821 4.0625 7.15234375 C3.53269531 6.50910156 3.00289062 5.86585937 2.45703125 5.203125 C1.98241455 4.63239258 1.50779785 4.06166016 1.01879883 3.47363281 C0 2 0 2 0 0 Z " fill="#42474B" transform="translate(127,120)"/>
</svg>
